<svg width="16" height="16" viewBox="0 0 16 16" fill="none" xmlns="http://www.w3.org/2000/svg">
<path d="M8.00058 5.39609C6.56699 5.39609 5.39707 6.56601 5.39707 7.9996C5.39707 9.4332 6.56699 10.6031 8.00058 10.6031C9.43417 10.6031 10.6041 9.4332 10.6041 7.9996C10.6041 6.56601 9.43417 5.39609 8.00058 5.39609ZM15.8092 7.9996C15.8092 6.92148 15.8189 5.85312 15.7584 4.77695C15.6978 3.52695 15.4127 2.41757 14.4986 1.50351C13.5826 0.587495 12.4752 0.304292 11.2252 0.243745C10.1471 0.183198 9.07871 0.192964 8.00253 0.192964C6.92441 0.192964 5.85605 0.183198 4.77988 0.243745C3.52988 0.304292 2.4205 0.589448 1.50644 1.50351C0.590425 2.41953 0.307222 3.52695 0.246675 4.77695C0.186128 5.85507 0.195893 6.92343 0.195893 7.9996C0.195893 9.07578 0.186128 10.1461 0.246675 11.2223C0.307222 12.4723 0.592378 13.5816 1.50644 14.4957C2.42246 15.4117 3.52988 15.6949 4.77988 15.7555C5.858 15.816 6.92636 15.8062 8.00253 15.8062C9.08066 15.8062 10.149 15.816 11.2252 15.7555C12.4752 15.6949 13.5846 15.4098 14.4986 14.4957C15.4146 13.5797 15.6978 12.4723 15.7584 11.2223C15.8209 10.1461 15.8092 9.07773 15.8092 7.9996V7.9996ZM8.00058 12.0055C5.78378 12.0055 3.99472 10.2164 3.99472 7.9996C3.99472 5.78281 5.78378 3.99374 8.00058 3.99374C10.2174 3.99374 12.0064 5.78281 12.0064 7.9996C12.0064 10.2164 10.2174 12.0055 8.00058 12.0055ZM12.1705 4.76523C11.6529 4.76523 11.235 4.34726 11.235 3.82968C11.235 3.3121 11.6529 2.89414 12.1705 2.89414C12.6881 2.89414 13.1061 3.3121 13.1061 3.82968C13.1062 3.95258 13.0821 4.07431 13.0351 4.18788C12.9882 4.30146 12.9193 4.40465 12.8324 4.49156C12.7455 4.57846 12.6423 4.64737 12.5287 4.69433C12.4151 4.74129 12.2934 4.76538 12.1705 4.76523V4.76523Z" fill="#EDF2F4"/>
</svg>
