<?xml version="1.0" standalone="no"?>
<!DOCTYPE svg PUBLIC "-//W3C//DTD SVG 20010904//EN"
 "http://www.w3.org/TR/2001/REC-SVG-20010904/DTD/svg10.dtd">
<svg version="1.0" xmlns="http://www.w3.org/2000/svg"
 width="700.000000pt" height="700.000000pt" viewBox="0 0 700.000000 700.000000"
 preserveAspectRatio="xMidYMid meet">
<metadata>
Created by potrace 1.14, written by Peter Selinger 2001-2017
</metadata>
<g transform="translate(0.000000,700.000000) scale(0.100000,-0.100000)"
fill="#000000" stroke="none">
<path d="M3379 6195 c-239 -39 -416 -108 -687 -269 -108 -65 -270 -184 -307
-226 -11 -13 3 -5 31 17 139 108 359 189 624 229 139 22 507 25 645 6 521 -72
897 -269 1148 -603 120 -159 220 -437 301 -834 79 -389 101 -667 98 -1230 -3
-563 11 -733 74 -945 26 -86 98 -235 134 -279 20 -23 21 -23 41 -5 12 11 35
36 51 56 l30 38 -21 29 c-99 138 -153 474 -166 1031 l-5 215 39 -295 c50 -376
87 -599 112 -674 11 -32 40 -102 65 -154 l44 -96 23 22 22 22 -28 50 c-42 74
-64 146 -86 282 -29 176 -49 412 -61 712 -6 144 -15 371 -20 506 -28 705 -161
1283 -372 1619 -210 335 -506 550 -960 696 -203 65 -323 86 -518 91 -111 2
-193 -1 -251 -11z"/>
<path d="M2211 5434 c-100 -97 -204 -206 -231 -243 -64 -85 -198 -350 -234
-463 -90 -283 -72 -504 70 -881 26 -67 50 -126 54 -131 5 -4 27 9 49 30 l41
39 -59 150 c-106 266 -115 304 -115 500 0 156 2 177 26 255 46 148 104 277
184 407 98 160 152 232 292 388 62 69 111 125 108 125 -2 0 -86 -79 -185 -176z"/>
<path d="M1999 5363 c-179 -192 -288 -340 -372 -508 -153 -307 -173 -552 -76
-929 30 -116 114 -363 128 -378 4 -4 33 18 64 50 l58 58 -35 75 c-49 107 -94
239 -122 359 -35 146 -43 360 -19 485 43 228 189 521 391 783 35 45 62 82 60
82 -2 0 -37 -35 -77 -77z"/>
<path d="M4326 5289 c-52 -41 -23 -129 44 -129 67 0 96 88 44 129 -15 12 -34
21 -44 21 -10 0 -29 -9 -44 -21z"/>
<path d="M3772 5270 c-47 -44 -16 -130 46 -130 66 0 97 89 46 129 -34 27 -64
27 -92 1z"/>
<path d="M3232 5263 c-7 -3 -19 -18 -28 -35 -19 -37 -5 -80 32 -97 35 -16 48
-14 78 10 66 52 -1 155 -82 122z"/>
<path d="M2657 5239 c-45 -26 -39 -106 9 -128 35 -16 47 -14 78 10 51 40 23
129 -41 129 -16 0 -36 -5 -46 -11z"/>
<path d="M4031 4994 c-34 -44 -26 -86 21 -110 50 -26 108 9 108 64 0 35 -38
72 -75 72 -24 0 -39 -7 -54 -26z"/>
<path d="M3480 4978 c-35 -38 -24 -93 23 -113 39 -16 80 -3 96 31 16 35 14 47
-10 78 -27 34 -79 36 -109 4z"/>
<path d="M2930 4960 c-45 -45 -11 -120 54 -120 37 0 76 36 76 70 0 10 -9 29
-21 44 -26 33 -79 36 -109 6z"/>
<path d="M4330 4753 c-32 -12 -50 -37 -50 -70 0 -94 139 -98 142 -4 1 26 -6
40 -26 58 -27 23 -39 26 -66 16z"/>
<path d="M3756 4719 c-52 -41 -23 -129 44 -129 67 0 96 88 44 129 -15 12 -34
21 -44 21 -10 0 -29 -9 -44 -21z"/>
<path d="M3431 4603 c0 -6 -43 -47 -93 -89 -51 -43 -100 -84 -109 -91 -10 -9
-6 8 12 43 16 31 29 68 29 82 l0 25 -22 -29 c-12 -16 -62 -71 -110 -123 -84
-92 -87 -96 -86 -142 0 -40 3 -49 21 -55 57 -18 37 -56 -51 -95 -36 -17 -87
-45 -114 -64 -43 -32 -68 -43 -68 -31 0 3 24 38 53 79 65 90 98 165 100 224 2
53 -18 73 -71 73 -30 0 -33 2 -22 15 16 19 11 19 -74 -6 -92 -28 -143 -54
-151 -78 -4 -13 -27 -27 -73 -42 -79 -26 -147 -59 -182 -87 -20 -17 2 -12 105
23 229 76 256 68 83 -24 -62 -34 -110 -61 -107 -61 4 0 67 25 140 56 194 80
227 90 247 70 23 -23 5 -54 -69 -117 -121 -103 -169 -154 -176 -189 -6 -31 -7
-32 -15 -11 -10 29 -25 19 -39 -28 -14 -47 5 -89 53 -119 42 -26 88 -38 88
-23 0 6 -5 11 -12 11 -6 0 -9 3 -6 6 4 3 23 1 44 -5 41 -11 57 -6 34 10 -12 9
-11 9 5 4 11 -3 34 -9 50 -12 28 -6 29 -5 15 12 -14 17 -13 18 19 12 18 -4 37
-7 42 -7 5 0 9 -9 9 -20 0 -10 9 -24 20 -30 16 -9 18 -15 9 -37 -14 -37 -111
-155 -173 -209 -82 -73 -130 -97 -174 -90 -70 13 -95 12 -100 -4 -4 -13 -3
-13 11 -2 18 15 37 8 37 -12 0 -8 7 -19 15 -26 13 -10 19 -10 33 2 19 17 72
32 72 21 0 -5 -22 -21 -49 -37 -59 -35 -80 -71 -55 -95 15 -15 16 -14 9 6 -5
19 -1 25 19 33 14 5 46 28 70 50 l44 40 -20 -39 c-17 -34 -18 -43 -6 -63 l13
-23 3 23 c2 13 14 28 27 34 17 8 25 22 30 54 4 32 13 49 32 61 24 16 26 16 43
-5 14 -17 19 -18 23 -8 3 8 -3 22 -14 32 -17 15 -18 19 -4 26 8 5 15 16 15 24
0 20 74 98 145 152 75 58 77 60 71 100 -5 33 -4 33 27 27 115 -24 165 -53 263
-152 80 -82 118 -137 110 -158 -4 -12 -20 -15 -69 -14 -73 2 -87 -3 -87 -34 0
-17 2 -19 9 -8 7 10 30 15 75 16 69 2 76 -4 26 -25 -25 -10 -30 -18 -30 -45 0
-18 7 -39 17 -46 15 -13 15 -12 3 11 -11 20 -11 25 1 29 8 2 28 20 46 39 l32
35 -6 -36 c-6 -40 9 -68 36 -66 10 0 11 2 4 6 -18 7 -16 32 2 40 11 4 15 16
13 36 -2 24 3 34 27 48 49 31 57 33 66 18 5 -8 9 -9 9 -3 0 23 -28 35 -69 28
-33 -5 -46 -3 -63 12 -26 23 -157 188 -183 229 -25 40 -44 55 -71 55 -12 0
-27 7 -34 15 -11 13 -8 15 17 15 16 0 53 7 82 16 48 14 59 14 132 -2 86 -19
113 -11 107 30 -5 34 -63 43 -150 24 -89 -19 -101 -15 -23 8 37 10 79 15 116
12 52 -4 59 -2 59 14 0 9 -11 25 -24 34 -22 13 -33 14 -82 4 -31 -7 -77 -21
-102 -31 -25 -11 -47 -17 -49 -15 -8 7 68 43 130 61 64 18 72 30 27 40 -50 11
-95 -9 -211 -93 -15 -11 -25 -12 -55 -2 -29 10 -48 10 -91 0 -47 -12 -58 -11
-88 3 -19 9 -35 21 -35 27 0 13 1 13 43 -5 20 -8 46 -15 59 -15 21 0 21 1 -6
29 -33 34 -27 61 8 38 39 -26 93 -36 133 -25 27 7 33 12 22 19 -8 5 -22 9 -32
9 -11 0 -35 8 -55 18 l-37 17 110 6 c69 3 119 10 135 20 23 13 19 14 -67 17
-51 1 -93 6 -93 11 0 4 27 11 59 14 75 8 167 42 186 70 8 11 13 22 11 24 -1 2
-25 -4 -53 -12 -49 -15 -175 -35 -181 -30 -2 2 21 11 50 20 129 43 228 108
228 151 0 13 -5 12 -27 -4 -61 -43 -227 -112 -239 -99 -3 2 27 23 65 46 99 59
171 131 171 171 l0 32 -62 -56 c-61 -55 -78 -65 -78 -46 0 6 -7 10 -16 10 -11
0 0 19 33 58 66 76 86 107 80 129 -3 10 -5 13 -6 6z m-142 -673 c-19 -11 -107
-26 -98 -17 6 7 74 25 99 26 13 0 12 -1 -1 -9z m-31 -47 c-10 -2 -28 -2 -40 0
-13 2 -5 4 17 4 22 1 32 -1 23 -4z"/>
<path d="M4011 4424 c-24 -30 -26 -43 -10 -78 23 -51 103 -55 128 -7 42 78
-64 154 -118 85z"/>
<path d="M4330 4183 c-51 -19 -68 -85 -30 -123 43 -43 123 -12 123 49 0 48
-51 89 -93 74z"/>
<path d="M4003 3885 c-48 -34 -31 -117 26 -130 74 -16 122 72 68 123 -27 26
-64 28 -94 7z"/>
<path d="M1185 2833 l-970 -977 205 165 c430 348 1188 961 1504 1217 181 147
333 270 338 273 4 3 -7 35 -26 72 -18 37 -42 103 -52 147 -10 44 -20 80 -23
80 -3 0 -442 -440 -976 -977z"/>
<path d="M4280 3610 c-45 -45 -11 -120 54 -120 66 0 94 72 49 123 -22 23 -78
22 -103 -3z"/>
<path d="M2065 3152 c-143 -142 -399 -394 -569 -562 -185 -181 -287 -288 -254
-264 31 21 332 237 670 478 l615 440 -48 36 c-26 19 -66 57 -89 83 -23 26 -47
47 -53 47 -7 0 -129 -116 -272 -258z"/>
<path d="M1990 2564 l-625 -626 720 548 c396 301 741 563 768 583 l48 36 -68
12 c-37 7 -96 24 -133 39 -36 14 -69 28 -75 30 -5 2 -291 -277 -635 -622z"/>
<path d="M2906 2835 c-22 -19 -37 -37 -35 -39 9 -10 456 -140 604 -177 217
-54 480 -98 623 -104 l117 -5 -215 49 c-535 122 -725 177 -964 275 -48 20 -87
36 -89 36 -1 -1 -20 -16 -41 -35z"/>
<path d="M2723 2697 c-45 -34 -82 -65 -83 -69 0 -3 19 -13 43 -21 23 -9 103
-38 179 -66 326 -120 564 -171 1188 -256 461 -62 621 -92 817 -151 120 -36
332 -118 416 -161 50 -25 51 -25 32 -3 -64 72 -270 218 -403 284 -167 84 -313
116 -837 181 -619 77 -759 113 -1260 321 -5 2 -47 -24 -92 -59z"/>
<path d="M5637 1992 l-138 -138 444 -430 c385 -371 449 -437 475 -489 16 -33
54 -84 84 -112 l53 -53 148 142 148 141 -62 63 c-35 35 -81 71 -104 81 -30 13
-128 110 -395 389 -195 205 -391 411 -435 458 l-80 86 -138 -138z"/>
</g>
</svg>
