<svg width="122" height="116" viewBox="0 0 122 116" fill="none" xmlns="http://www.w3.org/2000/svg">
<g clip-path="url(#clip0_31_313)">
<path d="M64 116C96.0325 116 122 90.0325 122 58C122 25.9675 96.0325 0 64 0C31.9675 0 6 25.9675 6 58C6 90.0325 31.9675 116 64 116Z" fill="#EDF2F4"/>
<path d="M84.1463 74.2602C84.3703 74.0381 84.7262 73.6837 84.8274 73.5781C83.8057 71.9157 83.5502 71.1057 83.2095 69.3154C82.14 63.6947 81.975 53.458 81.975 53.458C81.975 53.458 82.1878 36.6627 77.1216 26.8158C73.3752 19.5342 67.2021 16.1163 60.3477 14.1128C57.6688 13.3297 50.4707 11.4699 42.4668 15.5195C38.2381 17.659 35.4304 19.6156 33.7394 21.53C36.2056 19.0916 41.2809 16.6842 49.7265 16.7194C58.5211 16.7561 67.0743 19.3133 72.396 26.8158C73.8381 28.8489 75.4614 33.6856 76.3128 37.8137C77.1216 41.7354 77.1983 42.2469 77.5048 44.9751C77.6724 46.467 78.1434 51.4971 78.1434 55.4614C78.1434 61.2218 76.9959 71.3427 81.5361 76.8928L83.2095 75.1554C83.2095 75.1554 82.2579 74.7717 81.2938 70.8073C80.1562 66.1293 80.1444 54.8647 80.1444 54.8647C80.1444 54.8647 81.5361 67.2266 82.3156 69.9974C82.7752 71.6309 84.1463 74.2602 84.1463 74.2602Z" fill="#F63535"/>
<path d="M34.8462 21.9989C34.8462 21.9989 28.9648 27.0712 27.5662 29.5013C25.6686 32.7987 24.3068 35.4207 23.8197 39.2204C23.6266 40.7263 23.8305 42.929 24.2244 44.6341C24.8841 47.4901 26.5445 51.3692 26.5445 51.3692L27.9275 50.1581C27.9275 50.1581 25.5672 44.8535 25.2673 42.4174C24.8311 38.8752 25.257 37.0495 26.5445 33.7214C27.4422 31.401 28.2641 30.3913 29.5554 28.2651C30.7047 26.3729 34.8462 21.9989 34.8462 21.9989Z" fill="#F63535"/>
<path d="M33.7394 21.53C35.4304 19.6156 38.2381 17.659 42.4668 15.5195C50.4707 11.4699 57.6688 13.3297 60.3477 14.1128C67.2021 16.1163 73.3752 19.5342 77.1216 26.8158C82.1878 36.6627 81.975 53.458 81.975 53.458C81.975 53.458 82.14 63.6947 83.2095 69.3154C83.5502 71.1057 83.8057 71.9157 84.8274 73.5781C84.7262 73.6837 84.3703 74.0381 84.1463 74.2602C84.1463 74.2602 82.7752 71.6309 82.3156 69.9974C81.5361 67.2266 80.1444 54.8647 80.1444 54.8647C80.1444 54.8647 80.1562 66.1293 81.2938 70.8073C82.2579 74.7717 83.2095 75.1554 83.2095 75.1554L81.5361 76.8928C76.9959 71.3427 78.1434 61.2218 78.1434 55.4614C78.1434 51.4971 77.6724 46.467 77.5048 44.9751C77.1983 42.2469 77.1216 41.7354 76.3128 37.8137C75.4614 33.6856 73.8381 28.8489 72.396 26.8158C67.0743 19.3133 58.5211 16.7561 49.7265 16.7194C41.2809 16.6842 36.2056 19.0916 33.7394 21.53ZM33.7394 21.53C33.3422 21.9796 31.781 23.581 31.781 23.581C31.9179 23.3773 33.4652 21.801 33.7394 21.53ZM34.8462 21.9989C34.8462 21.9989 28.9648 27.0712 27.5662 29.5013C25.6686 32.7987 24.3068 35.4207 23.8197 39.2204C23.6266 40.7263 23.8305 42.929 24.2244 44.6341C24.8841 47.4901 26.5445 51.3692 26.5445 51.3692L27.9275 50.1581C27.9275 50.1581 25.5672 44.8535 25.2673 42.4174C24.8311 38.8752 25.257 37.0495 26.5445 33.7214C27.4422 31.401 28.2641 30.3913 29.5554 28.2651C30.7047 26.3729 34.8462 21.9989 34.8462 21.9989Z" stroke="#F63535" stroke-width="0.1"/>
<path d="M23.6095 53.8917L25.4791 52.1488C25.4791 52.1488 22.5056 46.75 22.5056 40.9262C22.5056 37.1429 23.5548 35.0559 24.765 32.3534C26.2695 28.9935 29.9648 24.501 29.9648 24.501C29.9648 24.501 25.5159 28.7994 23.6095 32.208C21.7887 35.4634 20.679 38.2533 20.679 41.989C20.679 47.0476 23.6095 53.8917 23.6095 53.8917Z" fill="#F63535" stroke="#F63535" stroke-width="0.1"/>
<path d="M38.2281 67.8623L40.8691 65.8177C40.8691 65.8177 46.3257 68.321 50.7511 69.3106C57.4195 70.8017 62.2823 70.7362 68.982 72.0793C74.8172 73.249 79.8012 78.3407 79.8012 78.3407C79.8012 78.3407 74.4191 75.4639 67.917 74.2942C60.6837 72.9929 55.0959 72.7608 47.7696 71.057C43.5356 70.0723 38.2281 67.8623 38.2281 67.8623Z" fill="#F63535" stroke="#F63535" stroke-width="0.1"/>
<path d="M41.7209 65.2796L43.0705 64.114C43.0705 64.114 46.1508 65.6764 51.6456 67.1121C56.0655 68.267 63.0185 69.7302 63.0185 69.7302C63.0185 69.7302 57.4812 70.0104 46.944 66.8615C42.4025 65.5042 41.7209 65.2796 41.7209 65.2796Z" fill="#F63535" stroke="#F63535" stroke-width="0.1"/>
<path d="M39.217 30.0008C39.8602 30.0008 40.3816 29.4794 40.3816 28.8362C40.3816 28.193 39.8602 27.6716 39.217 27.6716C38.5738 27.6716 38.0524 28.193 38.0524 28.8362C38.0524 29.4794 38.5738 30.0008 39.217 30.0008Z" fill="#F63535"/>
<path d="M43.5843 34.0769C44.2275 34.0769 44.7489 33.5555 44.7489 32.9123C44.7489 32.2691 44.2275 31.7477 43.5843 31.7477C42.9411 31.7477 42.4197 32.2691 42.4197 32.9123C42.4197 33.5555 42.9411 34.0769 43.5843 34.0769Z" fill="#F63535"/>
<path d="M56.3948 29.4183C57.038 29.4183 57.5594 28.8969 57.5594 28.2537C57.5594 27.6105 57.038 27.0891 56.3948 27.0891C55.7516 27.0891 55.2302 27.6105 55.2302 28.2537C55.2302 28.8969 55.7516 29.4183 56.3948 29.4183Z" fill="#F63535"/>
<path d="M47.9515 29.7099C48.5947 29.7099 49.1161 29.1885 49.1161 28.5453C49.1161 27.9021 48.5947 27.3807 47.9515 27.3807C47.3083 27.3807 46.7869 27.9021 46.7869 28.5453C46.7869 29.1885 47.3083 29.7099 47.9515 29.7099Z" fill="#F63535"/>
<path d="M60.4709 33.495C61.1141 33.495 61.6355 32.9736 61.6355 32.3304C61.6355 31.6872 61.1141 31.1658 60.4709 31.1658C59.8277 31.1658 59.3063 31.6872 59.3063 32.3304C59.3063 32.9736 59.8277 33.495 60.4709 33.495Z" fill="#F63535"/>
<path d="M52.0274 33.786C52.6706 33.786 53.192 33.2646 53.192 32.6214C53.192 31.9782 52.6706 31.4568 52.0274 31.4568C51.3842 31.4568 50.8628 31.9782 50.8628 32.6214C50.8628 33.2646 51.3842 33.786 52.0274 33.786Z" fill="#F63535"/>
<path d="M56.1036 37.8619C56.7468 37.8619 57.2682 37.3405 57.2682 36.6973C57.2682 36.0541 56.7468 35.5327 56.1036 35.5327C55.4604 35.5327 54.939 36.0541 54.939 36.6973C54.939 37.3405 55.4604 37.8619 56.1036 37.8619Z" fill="#F63535"/>
<path d="M60.1797 42.2296C60.8229 42.2296 61.3443 41.7082 61.3443 41.065C61.3443 40.4218 60.8229 39.9004 60.1797 39.9004C59.5366 39.9004 59.0151 40.4218 59.0151 41.065C59.0151 41.7082 59.5366 42.2296 60.1797 42.2296Z" fill="#F63535"/>
<path d="M64.5469 46.3056C65.1901 46.3056 65.7115 45.7842 65.7115 45.141C65.7115 44.4979 65.1901 43.9764 64.5469 43.9764C63.9037 43.9764 63.3823 44.4979 63.3823 45.141C63.3823 45.7842 63.9037 46.3056 64.5469 46.3056Z" fill="#F63535"/>
<path d="M59.8884 50.6726C60.5315 50.6726 61.053 50.1512 61.053 49.508C61.053 48.8648 60.5315 48.3434 59.8884 48.3434C59.2452 48.3434 58.7238 48.8648 58.7238 49.508C58.7238 50.1512 59.2452 50.6726 59.8884 50.6726Z" fill="#F63535"/>
<path d="M64.2558 54.7486C64.899 54.7486 65.4204 54.2272 65.4204 53.584C65.4204 52.9408 64.899 52.4194 64.2558 52.4194C63.6126 52.4194 63.0912 52.9408 63.0912 53.584C63.0912 54.2272 63.6126 54.7486 64.2558 54.7486Z" fill="#F63535"/>
<path d="M64.5469 37.571C65.1901 37.571 65.7115 37.0496 65.7115 36.4064C65.7115 35.7632 65.1901 35.2418 64.5469 35.2418C63.9037 35.2418 63.3823 35.7632 63.3823 36.4064C63.3823 37.0496 63.9037 37.571 64.5469 37.571Z" fill="#F63535"/>
<path d="M64.8379 29.128C65.4811 29.128 66.0025 28.6066 66.0025 27.9634C66.0025 27.3202 65.4811 26.7988 64.8379 26.7988C64.1947 26.7988 63.6733 27.3202 63.6733 27.9634C63.6733 28.6066 64.1947 29.128 64.8379 29.128Z" fill="#F63535"/>
<path d="M31.0296 49.6321L1 79.7895L32.6482 54.2315C32.6482 54.2315 31.9424 53.0088 31.6686 52.1873C31.2852 51.0374 31.0296 49.6321 31.0296 49.6321Z" fill="#F63535"/>
<path d="M36.6096 58.405L15.9684 73.1222L33.6705 55.7646C33.6705 55.7646 34.778 56.9337 35.1188 57.2977C35.4595 57.6617 36.6096 58.405 36.6096 58.405Z" fill="#F63535"/>
<path d="M37.9725 59.2141C37.9725 59.2141 39.1272 59.7602 40.1024 60.1084C40.6987 60.3214 42.3174 60.5343 42.3174 60.5343L18.6844 78.485L37.9725 59.2141Z" fill="#F63535"/>
<path d="M31.0296 49.6321L1 79.7895L32.6482 54.2315C32.6482 54.2315 31.9424 53.0088 31.6686 52.1873C31.2852 51.0374 31.0296 49.6321 31.0296 49.6321Z" stroke="#F63535" stroke-width="0.1"/>
<path d="M36.6096 58.405L15.9684 73.1222L33.6705 55.7646C33.6705 55.7646 34.778 56.9337 35.1188 57.2977C35.4595 57.6617 36.6096 58.405 36.6096 58.405Z" stroke="#F63535" stroke-width="0.1"/>
<path d="M37.9725 59.2141C37.9725 59.2141 39.1272 59.7602 40.1024 60.1084C40.6987 60.3214 42.3174 60.5343 42.3174 60.5343L18.6844 78.485L37.9725 59.2141Z" stroke="#F63535" stroke-width="0.1"/>
<path d="M82.1742 79.6987L86.3528 75.5201L99.721 89.5318L101.047 90.0919L102.872 91.9168L98.358 96.2309L96.612 94.4721L95.9304 93.0241L82.1742 79.6987Z" fill="#123958" stroke="#123958" stroke-width="0.1"/>
<path d="M86.4789 78.8424L85.6664 79.771L97.158 91.2621L98.086 90.3335L86.4789 78.8424Z" fill="#1B4F78" stroke="#153045" stroke-width="0.1"/>
<path d="M45.512 57.8508C51.3451 57.8508 56.0738 53.1221 56.0738 47.289C56.0738 41.4559 51.3451 36.7272 45.512 36.7272C39.6789 36.7272 34.9502 41.4559 34.9502 47.289C34.9502 53.1221 39.6789 57.8508 45.512 57.8508Z" stroke="#FFC24E" stroke-width="0.6"/>
<path fill-rule="evenodd" clip-rule="evenodd" d="M41.7238 46.3824C42.4032 45.5463 44.256 44.7896 44.985 44.4665C45.7141 44.1434 45.3413 43.4321 45.0836 43.4971C44.8258 43.5622 44.6131 43.3883 44.6485 42.8268C44.684 42.2652 44.2821 42.1337 44.7069 41.667C45.1317 41.2004 47.8783 38.4572 47.8231 38.1497C47.768 37.8421 48.7673 38.0811 46.9877 40.7481C47.2596 41.1671 48.6672 40.3747 48.9982 40.4483C49.3292 40.5218 49.14 41.1547 49.0202 41.3981C48.9004 41.6414 47.1524 42.0375 46.7496 44.0445C45.9363 45.2305 42.9075 47.0083 42.9075 47.0083C42.9075 47.0083 46.2003 50.2035 44.7186 51.2241C43.2369 52.2447 41.6252 53.5528 41.7537 54.2942C41.451 54.5982 40.9805 54.4894 41.4963 54.7664C42.0121 55.0435 41.8849 55.5235 41.4124 55.7412C41.7028 55.2173 41.1756 54.944 40.8422 55.0851C40.5088 55.2261 40.3404 55.4526 40.2109 56.5773C40.1654 56.972 39.5035 56.8524 39.3987 57.213C39.2939 57.5736 39.6462 57.7827 39.6462 57.7827C39.6462 57.7827 39.1208 57.9184 38.9424 57.293C38.8172 56.8555 39.2991 56.1085 39.5646 55.8853C39.0087 56.2998 38.4804 56.9437 38.0715 57.2049C37.7012 57.4416 37.3255 57.2283 37.456 57.5617C37.5941 57.9147 37.6788 57.962 37.8185 58.0219C37.6302 58.0364 37.0577 58.113 37.1029 57.4242C37.162 56.5238 39.5626 55.7692 38.7812 55.8293C37.9864 55.8904 37.8485 56.1894 37.6877 56.3139C37.527 56.4385 37.1024 56.2112 37.0222 55.7505C36.9621 55.4056 36.6419 55.4372 36.5217 55.6217C36.4126 55.7891 36.4166 55.9516 36.4166 55.9516C36.2608 55.8064 35.9949 55.1814 36.9546 55.1829C37.5068 55.1838 37.3255 55.8714 38.6914 55.4212C40.0637 54.9689 43.9926 50.744 43.1463 50.4318C41.492 49.8214 44.385 48.4708 43.6011 48.1326C42.8607 47.8133 40.8596 47.6056 41.7238 46.3824Z" fill="#F63535" stroke="white" stroke-width="0.1" stroke-linecap="round"/>
<path fill-rule="evenodd" clip-rule="evenodd" d="M34.5298 43.9922C35.2604 42.8213 38.063 42.1227 38.758 41.8924C38.7073 40.6492 41.9827 40.3555 42.438 39.9526C42.579 40.3091 42.0189 40.6171 42.1482 40.5743C45.5191 39.9401 43.0825 44.4586 41.3936 46.2171C41.1325 46.4889 42.4298 46.2192 41.9378 47.0375C42.0411 46.1104 43.8757 45.8217 44.934 45.1622C46.3624 44.2721 46.4936 43.4031 44.8627 43.3409C42.8031 43.2624 49.5094 39.0494 50.6351 37.3508C51.1737 38.073 48.4403 40.7211 46.9538 42.2067C48.3018 41.6836 51.0178 39.5616 51.1276 38.9924C51.2894 39.3122 52.2133 40.3813 47.3973 43.0252C50.1244 42.445 51.404 41.2229 51.7145 41.0537C51.8216 41.1059 52.1655 42.6802 47.3057 44.0034C49.6942 43.8135 50.9291 43.2682 51.0274 43.205C51.1404 43.1325 51.4165 44.6108 46.9262 45.0041C47.3224 45.3386 50.1493 45.0305 50.0535 45.1247C48.8842 46.2746 46.705 45.7051 45.7834 45.7823C46.8561 46.5383 47.5262 46.2549 47.96 46.5521C46.3621 47.6692 45.1671 46.2359 44.903 46.3512C44.4158 46.564 45.9279 47.2826 45.4556 47.5023C45.0226 47.7037 43.9086 46.9818 43.6957 47.0955C43.4828 47.2093 44.6597 48.1246 45.8931 47.4616C46.567 47.0993 47.2922 47.9767 47.8174 47.5581C48.7791 46.7916 50.1281 45.5854 51.5005 46.2797C52.1563 46.7195 50.1915 46.6792 48.8917 47.522C47.3863 48.498 46.5702 48.0147 46.5702 48.0147C46.5702 48.0147 47.1993 48.3246 49.3276 47.4463C51.4559 46.5681 52.8875 46.5673 52.5478 48.0293C51.8239 47.698 51.1748 47.4751 48.6076 48.4914C47.81 48.8071 46.7513 48.4875 46.7513 48.4875C46.7513 48.4875 47.0648 49.0299 49.0924 48.3307C51.3707 47.5449 53.3752 47.8992 52.4645 48.9697C51.9222 49.6073 50.2665 48.5126 49.2596 48.8383C48.3579 49.1299 47.6033 49.2891 47.2542 49.2425C47.2043 49.2358 47.432 49.4553 47.6659 49.515C48.0825 49.6214 48.6638 49.6179 48.7468 49.9211C48.8696 50.3697 49.5326 51.1912 50.1418 51.9417C51.4274 53.5256 51.9087 54.4039 52.5637 54.1639C53.2373 53.9175 53.4704 53.9209 53.7468 54.3045C54.0232 54.6881 53.7831 54.8021 53.7831 54.8021C53.7831 54.8021 53.4162 54.0083 53.196 54.4344C52.8852 55.0358 52.3642 54.8461 52.2568 55.0161C52.0912 55.2783 52.4235 56.0798 52.2605 56.0949C51.8601 56.132 51.5467 56.3664 52.0164 56.6492C52.4234 56.8943 52.4785 56.8961 52.4785 56.8961C52.4785 56.8961 51.2098 57.003 51.2848 56.1953C51.3556 55.4325 51.472 55.3321 51.472 55.3321C50.9951 55.5004 51.0531 56.3069 50.4618 56.3157C49.8706 56.3244 50.3778 57.0063 50.747 57.2045C49.7088 57.2751 49.5482 55.8114 50.3033 55.5467C51.0584 55.282 51.2368 54.9637 50.6477 55.1877C50.0587 55.4118 49.471 55.4588 49.3778 55.1725C49.3163 54.9834 48.7939 55.198 49.0582 55.7673C48.2997 55.5003 48.7343 54.4379 49.7664 54.7149C50.7985 54.992 51.6548 54.7204 50.7837 53.7027C48.7016 51.2701 47.4248 49.8872 44.6332 49.8281C41.85 49.7692 41.5323 49.2814 41.5992 49.4752C42.0616 49.7653 42.0373 50.3682 40.4106 49.5682C41.6694 50.331 40.1952 50.0583 39.4064 49.7427C39.995 50.0601 39.932 50.5257 38.8292 50.0384C37.7346 49.5549 36.8389 48.7461 37.8019 47.134C37.9426 46.8983 38.1182 47.1177 38.3101 47.7719C38.0816 46.7965 39.1856 45.892 41.354 44.171C42.9118 42.9347 42.4624 41.8184 40.1585 43.0278C39.7198 43.2581 39.2922 43.3972 38.6016 43.6578C36.2164 44.5577 35.9266 44.8422 35.5117 44.8284C35.7645 44.5461 39.4593 42.8551 39.5479 42.5377C38.8485 42.3376 34.5226 44.0234 34.5298 43.9922Z" fill="#F63535" stroke="white" stroke-width="0.1" stroke-linecap="round"/>
<path d="M39.2817 41.6119C39.5776 42.0262 40.2871 41.0235 41.6303 40.8895L39.2817 41.6119Z" fill="#F63535"/>
<path d="M39.2817 41.6119C39.5776 42.0262 40.2871 41.0235 41.6303 40.8895" stroke="white" stroke-width="0.1" stroke-linecap="round"/>
<path fill-rule="evenodd" clip-rule="evenodd" d="M41.0284 41.3963C41.0395 41.4284 41.0425 41.4629 41.0371 41.4978C41.0317 41.5326 41.018 41.5672 40.997 41.5995C40.9759 41.6318 40.9478 41.6612 40.9142 41.686C40.8806 41.7108 40.8423 41.7306 40.8014 41.7441C40.7605 41.7577 40.7178 41.7648 40.6758 41.765C40.6337 41.7653 40.5932 41.7586 40.5564 41.7455C40.5197 41.7324 40.4874 41.713 40.4615 41.6885C40.4357 41.664 40.4167 41.6349 40.4056 41.6028C40.3945 41.5707 40.3916 41.5362 40.397 41.5013C40.4024 41.4665 40.416 41.4319 40.4371 41.3996C40.4582 41.3673 40.4863 41.3379 40.5198 41.3131C40.5534 41.2883 40.5917 41.2685 40.6326 41.255C40.6735 41.2414 40.7162 41.2343 40.7583 41.2341C40.8003 41.2338 40.8409 41.2405 40.8776 41.2536C40.9144 41.2667 40.9466 41.2861 40.9725 41.3106C40.9984 41.3351 41.0174 41.3642 41.0284 41.3963Z" fill="#F63535" stroke="white" stroke-width="0.1" stroke-linecap="round"/>
</g>
<defs>
<clipPath id="clip0_31_313">
<rect width="122" height="116" fill="white"/>
</clipPath>
</defs>
</svg>
