<svg width="284" height="272" viewBox="0 0 284 272" fill="none" xmlns="http://www.w3.org/2000/svg">
<path fill-rule="evenodd" clip-rule="evenodd" d="M110.804 106.915C118.545 97.387 139.659 88.7643 147.966 85.0825C156.273 81.4008 152.025 73.2947 149.089 74.036C146.152 74.7774 143.727 72.7965 144.131 66.3971C144.536 59.9977 139.956 58.4992 144.796 53.1818C149.637 47.8645 180.935 16.6057 180.306 13.1012C179.678 9.59673 191.065 12.3196 170.786 42.7106C173.885 47.4849 189.924 38.4556 193.696 39.2938C197.468 40.132 195.313 47.3439 193.948 50.1169C192.582 52.8899 172.663 57.4039 168.074 80.2739C158.806 93.7883 124.293 114.046 124.293 114.046C124.293 114.046 161.814 150.456 144.93 162.086C128.046 173.716 109.68 188.621 111.144 197.07C107.695 200.534 102.334 199.294 108.212 202.451C114.09 205.608 112.639 211.078 107.255 213.558C110.565 207.588 104.557 204.475 100.758 206.082C96.9589 207.689 95.0396 210.27 93.564 223.086C93.0461 227.584 85.5038 226.221 84.3093 230.33C83.1149 234.439 87.1292 236.821 87.1292 236.821C87.1292 236.821 81.1424 238.368 79.1096 231.242C77.6832 226.257 83.1738 217.744 86.1999 215.2C79.8655 219.924 73.8444 227.262 69.1859 230.238C64.9653 232.934 60.6842 230.504 62.1719 234.303C63.7453 238.326 64.7103 238.865 66.303 239.547C64.1569 239.713 57.6333 240.586 58.1486 232.736C58.8221 222.476 86.1769 213.878 77.2731 214.562C68.2159 215.259 66.6445 218.666 64.8124 220.085C62.9803 221.505 58.1425 218.914 57.2282 213.665C56.5437 209.735 52.8948 210.095 51.5255 212.196C50.2822 214.105 50.3278 215.956 50.3278 215.956C48.552 214.302 45.5218 207.179 56.458 207.197C62.7511 207.207 60.6847 215.042 76.2494 209.913C91.887 204.759 136.657 156.615 127.013 153.057C108.163 146.102 141.129 130.711 132.196 126.858C123.759 123.219 100.956 120.853 110.804 106.915Z" fill="#8D99AE" stroke="#2B2D42" stroke-linecap="round"/>
<path fill-rule="evenodd" clip-rule="evenodd" d="M28.83 79.6793C37.1554 66.3362 69.0912 58.376 77.0101 55.7512C76.4324 41.5852 113.756 38.2384 118.945 33.6472C120.551 37.7091 114.169 41.2193 115.642 40.7309C154.054 33.5048 126.289 84.9935 107.043 105.031C104.068 108.129 118.852 105.055 113.244 114.38C114.422 103.816 135.327 100.527 147.387 93.0115C163.663 82.868 165.158 72.966 146.575 72.2576C123.105 71.363 199.525 23.3553 212.352 3.99892C218.489 12.2292 187.342 42.4044 170.403 59.3327C185.763 53.3723 216.713 29.1915 217.964 22.7056C219.808 26.3497 230.335 38.5323 175.457 68.6593C206.532 62.0487 221.113 48.1228 224.652 46.194C225.872 46.7889 229.791 64.7288 174.413 79.8069C201.63 77.6421 215.702 71.4282 216.822 70.7087C218.11 69.8821 221.256 86.7279 170.088 91.2097C174.603 95.0213 206.816 91.5107 205.725 92.5836C192.399 105.687 167.567 99.1979 157.066 100.077C169.289 108.692 176.925 105.463 181.869 108.85C163.66 121.579 150.043 105.246 147.033 106.56C141.482 108.985 158.713 117.173 153.331 119.677C148.397 121.972 135.702 113.745 133.276 115.042C130.851 116.338 144.261 126.768 158.316 119.213C165.996 115.084 174.259 125.083 180.243 120.313C191.202 111.579 206.575 97.8333 222.213 105.745C229.686 110.756 207.297 110.298 192.485 119.901C175.331 131.023 166.031 125.516 166.031 125.516C166.031 125.516 173.201 129.046 197.453 119.039C221.704 109.031 238.018 109.022 234.147 125.681C225.898 121.907 218.501 119.366 189.248 130.947C180.159 134.545 168.095 130.903 168.095 130.903C168.095 130.903 171.667 137.084 194.773 129.116C220.734 120.163 243.575 124.2 233.198 136.398C227.018 143.663 208.152 131.189 196.677 134.9C186.402 138.224 177.804 140.037 173.826 139.506C173.257 139.43 175.852 141.932 178.517 142.612C183.265 143.825 189.888 143.784 190.834 147.239C192.234 152.351 199.789 161.712 206.731 170.265C221.38 188.313 226.864 198.321 234.328 195.586C242.003 192.779 244.66 192.818 247.81 197.189C250.959 201.56 248.224 202.859 248.224 202.859C248.224 202.859 244.043 193.814 241.534 198.669C237.992 205.521 232.055 203.36 230.832 205.298C228.945 208.285 232.731 217.418 230.873 217.59C226.31 218.014 222.74 220.685 228.092 223.907C232.73 226.7 233.357 226.72 233.357 226.72C233.357 226.72 218.9 227.938 219.755 218.735C220.562 210.043 221.888 208.899 221.888 208.899C216.454 210.816 217.115 220.006 210.377 220.106C203.64 220.206 209.419 227.976 213.627 230.235C201.796 231.038 199.966 214.36 208.571 211.344C217.176 208.327 219.208 204.7 212.496 207.253C205.783 209.806 199.087 210.342 198.025 207.079C197.323 204.925 191.371 207.37 194.383 213.857C185.74 210.815 190.692 198.708 202.453 201.866C214.214 205.023 223.971 201.928 214.045 190.331C190.319 162.611 175.77 146.853 143.959 146.179C112.244 145.508 108.624 139.95 109.386 142.158C114.656 145.463 114.379 152.334 95.8425 143.218C110.187 151.911 93.3872 148.802 84.3998 145.206C91.106 148.823 90.3887 154.128 77.8218 148.576C65.3489 143.066 55.1426 133.85 66.1155 115.48C67.7193 112.795 69.7205 115.294 71.9069 122.749C69.3034 111.634 81.883 101.327 106.593 81.7163C124.344 67.6286 119.223 54.9086 92.9692 68.6898C87.971 71.3135 83.0975 72.8991 75.2286 75.8679C48.0493 86.1223 44.7464 89.3649 40.0183 89.2078C42.8989 85.9905 85.0018 66.7214 86.0116 63.105C78.042 60.824 28.7475 80.0348 28.83 79.6793Z" fill="#8D99AE" stroke="#2B2D42" stroke-linecap="round"/>
<path d="M82.9784 52.5524C86.3507 57.2733 94.4347 45.8472 109.741 44.3197Z" fill="#8D99AE"/>
<path d="M82.9784 52.5524C86.3507 57.2733 94.4347 45.8472 109.741 44.3197" stroke="#2B2D42" stroke-linecap="round"/>
<path fill-rule="evenodd" clip-rule="evenodd" d="M102.88 50.1038C103.007 50.4696 103.04 50.8624 102.979 51.2596C102.917 51.6568 102.762 52.0507 102.522 52.4187C102.281 52.7868 101.961 53.1218 101.579 53.4047C101.196 53.6875 100.759 53.9126 100.293 54.0672C99.8271 54.2217 99.3406 54.3026 98.8616 54.3053C98.3825 54.3079 97.9204 54.2323 97.5016 54.0827C97.0827 53.9331 96.7153 53.7125 96.4205 53.4334C96.1256 53.1543 95.9091 52.8223 95.7832 52.4562C95.6566 52.0904 95.6231 51.6977 95.6846 51.3005C95.7461 50.9033 95.9015 50.5094 96.1418 50.1413C96.382 49.7732 96.7025 49.4382 97.0848 49.1554C97.4672 48.8725 97.9039 48.6474 98.3701 48.4929C98.8363 48.3383 99.3228 48.2574 99.8018 48.2548C100.281 48.2521 100.743 48.3277 101.162 48.4773C101.581 48.6269 101.948 48.8476 102.243 49.1267C102.538 49.4058 102.754 49.7378 102.88 50.1038Z" fill="#8D99AE" stroke="#2B2D42" stroke-linecap="round"/>
</svg>
