<svg width="222" height="238" viewBox="0 0 222 238" fill="none" xmlns="http://www.w3.org/2000/svg">
<g clip-path="url(#clip0_30_307)">
<path fill-rule="evenodd" clip-rule="evenodd" d="M82.804 103.915C90.545 94.387 111.659 85.7643 119.966 82.0825C128.273 78.4008 124.025 70.2948 121.089 71.0361C118.152 71.7775 115.727 69.7966 116.131 63.3972C116.536 56.9978 111.956 55.4993 116.796 50.1819C121.637 44.8646 152.935 13.6057 152.306 10.1012C151.678 6.59678 163.065 9.31965 142.786 39.7107C145.885 44.485 161.924 35.4556 165.696 36.2938C169.468 37.132 167.313 44.344 165.948 47.117C164.582 49.89 144.663 54.4039 140.074 77.2739C130.806 90.7883 96.293 111.046 96.293 111.046C96.293 111.046 133.814 147.456 116.93 159.086C100.046 170.716 81.68 185.621 83.144 194.07C79.695 197.534 74.334 196.294 80.212 199.451C86.09 202.608 84.639 208.078 79.255 210.558C82.565 204.588 76.557 201.475 72.758 203.082C68.9589 204.689 67.0396 207.27 65.564 220.086C65.0461 224.584 57.5038 223.221 56.3093 227.33C55.1149 231.439 59.1292 233.821 59.1292 233.821C59.1292 233.821 53.1424 235.368 51.1096 228.242C49.6832 223.257 55.1738 214.744 58.1999 212.2C51.8655 216.924 45.8444 224.262 41.1859 227.238C36.9653 229.934 32.6842 227.504 34.1719 231.303C35.7453 235.326 36.7103 235.865 38.303 236.547C36.1569 236.713 29.6333 237.586 30.1486 229.736C30.8221 219.476 58.1769 210.878 49.2731 211.562C40.2159 212.259 38.6445 215.666 36.8124 217.085C34.9803 218.505 30.1425 215.914 29.2282 210.665C28.5437 206.735 24.8948 207.095 23.5255 209.196C22.2822 211.105 22.3278 212.956 22.3278 212.956C20.552 211.302 17.5218 204.179 28.458 204.197C34.7511 204.207 32.6847 212.042 48.2494 206.913C63.887 201.759 108.657 153.615 99.013 150.057C80.163 143.102 113.129 127.711 104.196 123.858C95.759 120.219 72.956 117.853 82.804 103.915Z" fill="#8D99AE" stroke="#2B2D42" stroke-linecap="round"/>
<path fill-rule="evenodd" clip-rule="evenodd" d="M0.830059 76.6793C9.15546 63.3362 41.0913 55.376 49.0102 52.7512C48.4325 38.5852 85.7561 35.2384 90.9451 30.6472C92.5511 34.7091 86.1691 38.2193 87.6421 37.7309C126.054 30.5048 98.2891 81.9935 79.0431 102.031C76.0681 105.129 90.8521 102.055 85.2441 111.38C86.4221 100.816 107.327 97.527 119.387 90.0115C135.663 79.868 137.158 69.966 118.575 69.2576C95.1051 68.363 171.525 20.3553 184.352 0.998901C190.489 9.22918 159.342 39.4044 142.403 56.3327C157.763 50.3723 188.713 26.1915 189.964 19.7056C191.808 23.3497 202.335 35.5323 147.457 65.6593C178.532 59.0487 193.113 45.1228 196.652 43.194C197.872 43.7889 201.791 61.7288 146.413 76.8069C173.63 74.6421 187.702 68.4282 188.822 67.7087C190.11 66.8821 193.256 83.7279 142.088 88.2097C146.603 92.0213 178.816 88.5107 177.725 89.5836C164.399 102.687 139.567 96.1979 129.066 97.077C141.289 105.692 148.925 102.463 153.869 105.85C135.66 118.579 122.043 102.246 119.033 103.56C113.482 105.985 130.713 114.173 125.331 116.677C120.397 118.972 107.702 110.745 105.276 112.042C102.851 113.338 116.261 123.768 130.316 116.213C137.996 112.084 146.259 122.083 152.243 117.313C163.202 108.579 178.575 94.8333 194.213 102.745C201.686 107.756 179.297 107.298 164.485 116.901C147.331 128.023 138.031 122.516 138.031 122.516C138.031 122.516 145.201 126.046 169.453 116.039C193.704 106.031 210.018 106.022 206.147 122.681C197.898 118.907 190.501 116.366 161.248 127.947C152.159 131.545 140.095 127.903 140.095 127.903C140.095 127.903 143.667 134.084 166.773 126.116C192.734 117.163 215.575 121.2 205.198 133.398C199.018 140.663 180.152 128.189 168.677 131.9C158.402 135.224 149.804 137.037 145.826 136.506C145.257 136.43 147.852 138.932 150.517 139.612C155.265 140.825 161.888 140.784 162.834 144.239C164.234 149.351 171.789 158.712 178.731 167.265C193.38 185.313 198.864 195.321 206.328 192.586C214.003 189.779 216.66 189.818 219.81 194.189C222.959 198.56 220.224 199.859 220.224 199.859C220.224 199.859 216.043 190.814 213.534 195.669C209.992 202.521 204.055 200.36 202.832 202.298C200.945 205.285 204.731 214.418 202.873 214.59C198.31 215.014 194.74 217.685 200.092 220.907C204.73 223.7 205.357 223.72 205.357 223.72C205.357 223.72 190.9 224.938 191.755 215.735C192.562 207.043 193.888 205.899 193.888 205.899C188.454 207.816 189.115 217.006 182.377 217.106C175.64 217.206 181.419 224.976 185.627 227.235C173.796 228.038 171.966 211.36 180.571 208.344C189.176 205.327 191.208 201.7 184.496 204.253C177.783 206.806 171.087 207.342 170.025 204.079C169.323 201.925 163.371 204.37 166.383 210.857C157.74 207.815 162.692 195.708 174.453 198.866C186.214 202.023 195.971 198.928 186.045 187.331C162.319 159.611 147.77 143.853 115.959 143.179C84.2441 142.508 80.6241 136.95 81.3861 139.158C86.6561 142.463 86.3791 149.334 67.8426 140.218C82.1871 148.911 65.3873 145.802 56.3999 142.206C63.1061 145.823 62.3888 151.128 49.8219 145.576C37.349 140.066 27.1427 130.85 38.1156 112.48C39.7194 109.795 41.7206 112.294 43.907 119.749C41.3035 108.634 53.8831 98.327 78.5931 78.7163C96.3441 64.6286 91.2231 51.9086 64.9693 65.6898C59.9711 68.3135 55.0976 69.8991 47.2287 72.8679C20.0494 83.1223 16.7465 86.3649 12.0184 86.2078C14.899 82.9905 57.0019 63.7214 58.0117 60.105C50.0421 57.824 0.747559 77.0348 0.830059 76.6793Z" fill="#8D99AE" stroke="#2B2D42" stroke-linecap="round"/>
<path d="M54.9784 49.5524C58.3507 54.2733 66.4347 42.8472 81.741 41.3197L54.9784 49.5524Z" fill="#8D99AE"/>
<path d="M54.9784 49.5524C58.3507 54.2733 66.4347 42.8472 81.741 41.3197" stroke="#2B2D42" stroke-linecap="round"/>
<path fill-rule="evenodd" clip-rule="evenodd" d="M74.88 47.1038C75.007 47.4696 75.04 47.8624 74.979 48.2596C74.917 48.6568 74.762 49.0507 74.522 49.4187C74.281 49.7868 73.961 50.1218 73.579 50.4047C73.196 50.6875 72.759 50.9126 72.293 51.0672C71.8271 51.2217 71.3406 51.3026 70.8616 51.3053C70.3825 51.3079 69.9204 51.2323 69.5016 51.0827C69.0827 50.9331 68.7153 50.7125 68.4205 50.4334C68.1256 50.1543 67.9091 49.8223 67.7832 49.4562C67.6566 49.0904 67.6231 48.6977 67.6846 48.3005C67.7461 47.9033 67.9015 47.5094 68.1418 47.1413C68.382 46.7732 68.7025 46.4382 69.0848 46.1554C69.4672 45.8725 69.9039 45.6474 70.3701 45.4929C70.8363 45.3383 71.3228 45.2574 71.8018 45.2548C72.281 45.2521 72.743 45.3277 73.162 45.4773C73.581 45.6269 73.948 45.8476 74.243 46.1267C74.538 46.4058 74.754 46.7378 74.88 47.1038Z" fill="#8D99AE" stroke="#2B2D42" stroke-linecap="round"/>
</g>
<defs>
<clipPath id="clip0_30_307">
<rect width="222" height="238" fill="white"/>
</clipPath>
</defs>
</svg>
