<svg width="136" height="136" viewBox="0 0 136 136" fill="none" xmlns="http://www.w3.org/2000/svg">
<g filter="url(#filter0_d_20_221)">
<circle cx="68" cy="58" r="58" fill="#EDF2F4"/>
</g>
<path d="M88.1463 74.2602C88.3703 74.0381 88.7262 73.6837 88.8274 73.5781C87.8057 71.9157 87.5502 71.1057 87.2095 69.3154C86.14 63.6947 85.975 53.458 85.975 53.458C85.975 53.458 86.1878 36.6627 81.1216 26.8158C77.3752 19.5342 71.2021 16.1163 64.3477 14.1128C61.6688 13.3297 54.4707 11.4699 46.4668 15.5195C42.2381 17.659 39.4304 19.6156 37.7394 21.53C40.2056 19.0916 45.2809 16.6842 53.7265 16.7194C62.5211 16.7561 71.0743 19.3133 76.396 26.8158C77.8381 28.8489 79.4614 33.6856 80.3128 37.8137C81.1216 41.7354 81.1983 42.2469 81.5048 44.9751C81.6724 46.467 82.1434 51.4971 82.1434 55.4614C82.1434 61.2218 80.9959 71.3427 85.5361 76.8928L87.2095 75.1554C87.2095 75.1554 86.2579 74.7717 85.2938 70.8073C84.1562 66.1293 84.1444 54.8647 84.1444 54.8647C84.1444 54.8647 85.5361 67.2266 86.3156 69.9974C86.7752 71.6309 88.1463 74.2602 88.1463 74.2602Z" fill="#F63535"/>
<path d="M38.8462 21.9989C38.8462 21.9989 32.9648 27.0712 31.5662 29.5013C29.6686 32.7987 28.3068 35.4207 27.8197 39.2204C27.6266 40.7263 27.8305 42.929 28.2244 44.6341C28.8841 47.4901 30.5445 51.3692 30.5445 51.3692L31.9275 50.1581C31.9275 50.1581 29.5672 44.8535 29.2673 42.4174C28.8311 38.8752 29.257 37.0495 30.5445 33.7214C31.4422 31.401 32.2641 30.3913 33.5554 28.2651C34.7047 26.3729 38.8462 21.9989 38.8462 21.9989Z" fill="#F63535"/>
<path d="M37.7394 21.53C39.4304 19.6156 42.2381 17.659 46.4668 15.5195C54.4707 11.4699 61.6688 13.3297 64.3477 14.1128C71.2021 16.1163 77.3752 19.5342 81.1216 26.8158C86.1878 36.6627 85.975 53.458 85.975 53.458C85.975 53.458 86.14 63.6947 87.2095 69.3154C87.5502 71.1057 87.8057 71.9157 88.8274 73.5781C88.7262 73.6837 88.3703 74.0381 88.1463 74.2602C88.1463 74.2602 86.7752 71.6309 86.3156 69.9974C85.5361 67.2266 84.1444 54.8647 84.1444 54.8647C84.1444 54.8647 84.1562 66.1293 85.2938 70.8073C86.2579 74.7717 87.2095 75.1554 87.2095 75.1554L85.5361 76.8928C80.9959 71.3427 82.1434 61.2218 82.1434 55.4614C82.1434 51.4971 81.6724 46.467 81.5048 44.9751C81.1983 42.2469 81.1216 41.7354 80.3128 37.8137C79.4614 33.6856 77.8381 28.8489 76.396 26.8158C71.0743 19.3133 62.5211 16.7561 53.7265 16.7194C45.2809 16.6842 40.2056 19.0916 37.7394 21.53ZM37.7394 21.53C37.3422 21.9796 35.781 23.581 35.781 23.581C35.9179 23.3773 37.4652 21.801 37.7394 21.53ZM38.8462 21.9989C38.8462 21.9989 32.9648 27.0712 31.5662 29.5013C29.6686 32.7987 28.3068 35.4207 27.8197 39.2204C27.6266 40.7263 27.8305 42.929 28.2244 44.6341C28.8841 47.4901 30.5445 51.3692 30.5445 51.3692L31.9275 50.1581C31.9275 50.1581 29.5672 44.8535 29.2673 42.4174C28.8311 38.8752 29.257 37.0495 30.5445 33.7214C31.4422 31.401 32.2641 30.3913 33.5554 28.2651C34.7047 26.3729 38.8462 21.9989 38.8462 21.9989Z" stroke="#F63535" stroke-width="0.1"/>
<path d="M27.6095 53.8917L29.4791 52.1488C29.4791 52.1488 26.5056 46.75 26.5056 40.9262C26.5056 37.1429 27.5548 35.0559 28.765 32.3534C30.2695 28.9935 33.9648 24.501 33.9648 24.501C33.9648 24.501 29.5159 28.7994 27.6095 32.208C25.7887 35.4634 24.679 38.2533 24.679 41.989C24.679 47.0476 27.6095 53.8917 27.6095 53.8917Z" fill="#F63535" stroke="#F63535" stroke-width="0.1"/>
<path d="M42.2281 67.8623L44.8691 65.8177C44.8691 65.8177 50.3257 68.321 54.7511 69.3106C61.4195 70.8017 66.2822 70.7362 72.9819 72.0793C78.8171 73.249 83.8011 78.3407 83.8011 78.3407C83.8011 78.3407 78.4191 75.4639 71.917 74.2942C64.6837 72.9929 59.0958 72.7608 51.7695 71.057C47.5355 70.0723 42.2281 67.8623 42.2281 67.8623Z" fill="#F63535" stroke="#F63535" stroke-width="0.1"/>
<path d="M45.721 65.2796L47.0706 64.114C47.0706 64.114 50.1509 65.6764 55.6457 67.1121C60.0656 68.267 67.0186 69.7302 67.0186 69.7302C67.0186 69.7302 61.4813 70.0104 50.9441 66.8615C46.4026 65.5042 45.721 65.2796 45.721 65.2796Z" fill="#F63535" stroke="#F63535" stroke-width="0.1"/>
<circle cx="43.217" cy="28.8362" r="1.1646" fill="#F63535"/>
<circle cx="47.5843" cy="32.9123" r="1.1646" fill="#F63535"/>
<circle cx="60.3948" cy="28.2537" r="1.1646" fill="#F63535"/>
<circle cx="51.9515" cy="28.5453" r="1.1646" fill="#F63535"/>
<circle cx="64.4709" cy="32.3304" r="1.1646" fill="#F63535"/>
<circle cx="56.0274" cy="32.6214" r="1.1646" fill="#F63535"/>
<circle cx="60.1036" cy="36.6973" r="1.1646" fill="#F63535"/>
<circle cx="64.1797" cy="41.065" r="1.1646" fill="#F63535"/>
<circle cx="68.5469" cy="45.141" r="1.1646" fill="#F63535"/>
<circle cx="63.8884" cy="49.508" r="1.1646" fill="#F63535"/>
<circle cx="68.2558" cy="53.584" r="1.1646" fill="#F63535"/>
<circle cx="68.5469" cy="36.4064" r="1.1646" fill="#F63535"/>
<circle cx="68.838" cy="27.9634" r="1.1646" fill="#F63535"/>
<path d="M35.0296 49.6321L5 79.7895L36.6482 54.2315C36.6482 54.2315 35.9424 53.0088 35.6686 52.1873C35.2852 51.0374 35.0296 49.6321 35.0296 49.6321Z" fill="#F63535"/>
<path d="M40.6096 58.405L19.9684 73.1221L37.6705 55.7646C37.6705 55.7646 38.778 56.9337 39.1188 57.2977C39.4595 57.6617 40.6096 58.405 40.6096 58.405Z" fill="#F63535"/>
<path d="M41.9726 59.2141C41.9726 59.2141 43.1272 59.7602 44.1024 60.1084C44.6987 60.3214 46.3174 60.5343 46.3174 60.5343L22.6845 78.485L41.9726 59.2141Z" fill="#F63535"/>
<path d="M35.0296 49.6321L5 79.7895L36.6482 54.2315C36.6482 54.2315 35.9424 53.0088 35.6686 52.1873C35.2852 51.0374 35.0296 49.6321 35.0296 49.6321Z" stroke="#F63535" stroke-width="0.1"/>
<path d="M40.6096 58.405L19.9684 73.1221L37.6705 55.7646C37.6705 55.7646 38.778 56.9337 39.1188 57.2977C39.4595 57.6617 40.6096 58.405 40.6096 58.405Z" stroke="#F63535" stroke-width="0.1"/>
<path d="M41.9726 59.2141C41.9726 59.2141 43.1272 59.7602 44.1024 60.1084C44.6987 60.3214 46.3174 60.5343 46.3174 60.5343L22.6845 78.485L41.9726 59.2141Z" stroke="#F63535" stroke-width="0.1"/>
<path d="M86.1742 79.6987L90.3528 75.5201L103.721 89.5318L105.047 90.0919L106.872 91.9168L102.358 96.2309L100.612 94.4721L99.9304 93.0241L86.1742 79.6987Z" fill="#123958" stroke="#123958" stroke-width="0.1"/>
<path d="M90.4789 78.8424L89.6664 79.771L101.158 91.2621L102.086 90.3335L90.4789 78.8424Z" fill="#1B4F78" stroke="#153045" stroke-width="0.1"/>
<circle cx="49.512" cy="47.289" r="10.5618" stroke="#FFC24E" stroke-width="0.6"/>
<path fill-rule="evenodd" clip-rule="evenodd" d="M45.7238 46.3824C46.4032 45.5463 48.256 44.7896 48.985 44.4665C49.7141 44.1434 49.3413 43.4321 49.0836 43.4971C48.8258 43.5622 48.6131 43.3883 48.6485 42.8268C48.684 42.2652 48.2821 42.1337 48.7069 41.667C49.1317 41.2004 51.8783 38.4572 51.8231 38.1497C51.768 37.8421 52.7673 38.0811 50.9877 40.7481C51.2596 41.1671 52.6672 40.3747 52.9982 40.4483C53.3292 40.5218 53.14 41.1547 53.0202 41.3981C52.9004 41.6414 51.1524 42.0375 50.7496 44.0445C49.9363 45.2305 46.9075 47.0083 46.9075 47.0083C46.9075 47.0083 50.2003 50.2035 48.7186 51.2241C47.2369 52.2447 45.6252 53.5528 45.7537 54.2942C45.451 54.5982 44.9805 54.4894 45.4963 54.7664C46.0121 55.0435 45.8849 55.5235 45.4124 55.7412C45.7028 55.2173 45.1756 54.944 44.8422 55.0851C44.5088 55.2261 44.3404 55.4526 44.2109 56.5773C44.1654 56.972 43.5035 56.8524 43.3987 57.213C43.2939 57.5736 43.6462 57.7827 43.6462 57.7827C43.6462 57.7827 43.1208 57.9184 42.9424 57.293C42.8172 56.8555 43.2991 56.1085 43.5646 55.8853C43.0087 56.2998 42.4804 56.9437 42.0715 57.2049C41.7012 57.4416 41.3255 57.2283 41.456 57.5617C41.5941 57.9147 41.6788 57.962 41.8185 58.0219C41.6302 58.0364 41.0577 58.113 41.1029 57.4242C41.162 56.5238 43.5626 55.7692 42.7812 55.8293C41.9864 55.8904 41.8485 56.1894 41.6877 56.3139C41.527 56.4385 41.1024 56.2112 41.0222 55.7505C40.9621 55.4056 40.6419 55.4372 40.5217 55.6217C40.4126 55.7891 40.4166 55.9516 40.4166 55.9516C40.2608 55.8064 39.9949 55.1814 40.9546 55.1829C41.5068 55.1838 41.3255 55.8714 42.6914 55.4212C44.0637 54.9689 47.9926 50.744 47.1463 50.4318C45.492 49.8214 48.385 48.4708 47.6011 48.1326C46.8607 47.8133 44.8596 47.6056 45.7238 46.3824Z" fill="#F63535" stroke="white" stroke-width="0.1" stroke-linecap="round"/>
<path fill-rule="evenodd" clip-rule="evenodd" d="M38.5298 43.9922C39.2604 42.8213 42.063 42.1227 42.758 41.8924C42.7073 40.6492 45.9827 40.3555 46.438 39.9526C46.579 40.3091 46.0189 40.6171 46.1482 40.5743C49.5191 39.9401 47.0825 44.4586 45.3936 46.2171C45.1325 46.4889 46.4298 46.2192 45.9378 47.0375C46.0411 46.1104 47.8757 45.8217 48.934 45.1622C50.3624 44.2721 50.4936 43.4031 48.8627 43.3409C46.8031 43.2624 53.5094 39.0494 54.6351 37.3508C55.1737 38.073 52.4403 40.7211 50.9538 42.2067C52.3018 41.6836 55.0178 39.5616 55.1276 38.9924C55.2894 39.3122 56.2133 40.3813 51.3973 43.0252C54.1244 42.445 55.404 41.2229 55.7145 41.0537C55.8216 41.1059 56.1655 42.6802 51.3057 44.0034C53.6942 43.8135 54.9291 43.2682 55.0274 43.205C55.1404 43.1325 55.4165 44.6108 50.9262 45.0041C51.3224 45.3386 54.1493 45.0305 54.0535 45.1247C52.8842 46.2746 50.705 45.7051 49.7834 45.7823C50.8561 46.5383 51.5262 46.2549 51.96 46.5521C50.3621 47.6692 49.1671 46.2359 48.903 46.3512C48.4158 46.564 49.9279 47.2826 49.4556 47.5023C49.0226 47.7037 47.9086 46.9818 47.6957 47.0955C47.4828 47.2093 48.6597 48.1246 49.8931 47.4616C50.567 47.0993 51.2922 47.9767 51.8174 47.5581C52.7791 46.7916 54.1281 45.5854 55.5005 46.2797C56.1563 46.7195 54.1915 46.6792 52.8917 47.522C51.3863 48.498 50.5702 48.0147 50.5702 48.0147C50.5702 48.0147 51.1993 48.3246 53.3276 47.4463C55.4559 46.5681 56.8875 46.5673 56.5478 48.0293C55.8239 47.698 55.1748 47.4751 52.6076 48.4914C51.81 48.8071 50.7513 48.4875 50.7513 48.4875C50.7513 48.4875 51.0648 49.0299 53.0924 48.3307C55.3707 47.5449 57.3752 47.8992 56.4645 48.9697C55.9222 49.6073 54.2665 48.5126 53.2596 48.8383C52.3579 49.1299 51.6033 49.2891 51.2542 49.2425C51.2043 49.2358 51.432 49.4553 51.6659 49.515C52.0825 49.6214 52.6638 49.6179 52.7468 49.9211C52.8696 50.3697 53.5326 51.1912 54.1418 51.9417C55.4274 53.5256 55.9087 54.4039 56.5637 54.1639C57.2373 53.9175 57.4704 53.9209 57.7468 54.3045C58.0232 54.6881 57.7831 54.8021 57.7831 54.8021C57.7831 54.8021 57.4162 54.0083 57.196 54.4344C56.8852 55.0358 56.3642 54.8461 56.2568 55.0161C56.0912 55.2783 56.4235 56.0798 56.2605 56.0949C55.8601 56.132 55.5467 56.3664 56.0164 56.6492C56.4234 56.8943 56.4785 56.8961 56.4785 56.8961C56.4785 56.8961 55.2098 57.003 55.2848 56.1953C55.3556 55.4325 55.472 55.3321 55.472 55.3321C54.9951 55.5004 55.0531 56.3069 54.4618 56.3157C53.8706 56.3244 54.3778 57.0063 54.747 57.2045C53.7088 57.2751 53.5482 55.8114 54.3033 55.5467C55.0584 55.282 55.2368 54.9637 54.6477 55.1877C54.0587 55.4118 53.471 55.4588 53.3778 55.1725C53.3163 54.9834 52.7939 55.198 53.0582 55.7673C52.2997 55.5003 52.7343 54.4379 53.7664 54.7149C54.7985 54.992 55.6548 54.7204 54.7837 53.7027C52.7016 51.2701 51.4248 49.8872 48.6332 49.8281C45.85 49.7692 45.5323 49.2814 45.5992 49.4752C46.0616 49.7653 46.0373 50.3682 44.4106 49.5682C45.6694 50.331 44.1952 50.0583 43.4064 49.7427C43.995 50.0601 43.932 50.5257 42.8292 50.0384C41.7346 49.5549 40.8389 48.7461 41.8019 47.134C41.9426 46.8983 42.1182 47.1177 42.3101 47.7719C42.0816 46.7965 43.1856 45.892 45.354 44.171C46.9118 42.9347 46.4624 41.8184 44.1585 43.0278C43.7198 43.2581 43.2922 43.3972 42.6016 43.6578C40.2164 44.5577 39.9266 44.8422 39.5117 44.8284C39.7645 44.5461 43.4593 42.8551 43.5479 42.5377C42.8485 42.3376 38.5226 44.0234 38.5298 43.9922Z" fill="#F63535" stroke="white" stroke-width="0.1" stroke-linecap="round"/>
<path d="M43.2818 41.6119C43.5777 42.0262 44.2872 41.0235 45.6304 40.8895Z" fill="#F63535"/>
<path d="M43.2818 41.6119C43.5777 42.0262 44.2872 41.0235 45.6304 40.8895" stroke="white" stroke-width="0.1" stroke-linecap="round"/>
<path fill-rule="evenodd" clip-rule="evenodd" d="M45.0284 41.3964C45.0395 41.4285 45.0425 41.463 45.0371 41.4979C45.0317 41.5327 45.018 41.5673 44.997 41.5996C44.9759 41.6319 44.9478 41.6613 44.9142 41.6861C44.8806 41.7109 44.8423 41.7307 44.8014 41.7442C44.7605 41.7578 44.7178 41.7649 44.6758 41.7651C44.6337 41.7654 44.5932 41.7587 44.5564 41.7456C44.5197 41.7325 44.4874 41.7131 44.4615 41.6886C44.4357 41.6641 44.4167 41.635 44.4056 41.6029C44.3945 41.5708 44.3916 41.5363 44.397 41.5014C44.4024 41.4666 44.416 41.432 44.4371 41.3997C44.4582 41.3674 44.4863 41.338 44.5198 41.3132C44.5534 41.2884 44.5917 41.2686 44.6326 41.2551C44.6735 41.2415 44.7162 41.2344 44.7583 41.2342C44.8003 41.2339 44.8409 41.2406 44.8776 41.2537C44.9144 41.2668 44.9466 41.2862 44.9725 41.3107C44.9984 41.3352 45.0174 41.3643 45.0284 41.3964Z" fill="#F63535" stroke="white" stroke-width="0.1" stroke-linecap="round"/>
<defs>
<filter id="filter0_d_20_221" x="0" y="0" width="136" height="136" filterUnits="userSpaceOnUse" color-interpolation-filters="sRGB">
<feFlood flood-opacity="0" result="BackgroundImageFix"/>
<feColorMatrix in="SourceAlpha" type="matrix" values="0 0 0 0 0 0 0 0 0 0 0 0 0 0 0 0 0 0 127 0" result="hardAlpha"/>
<feOffset dy="10"/>
<feGaussianBlur stdDeviation="5"/>
<feComposite in2="hardAlpha" operator="out"/>
<feColorMatrix type="matrix" values="0 0 0 0 0 0 0 0 0 0 0 0 0 0 0 0 0 0 0.25 0"/>
<feBlend mode="normal" in2="BackgroundImageFix" result="effect1_dropShadow_20_221"/>
<feBlend mode="normal" in="SourceGraphic" in2="effect1_dropShadow_20_221" result="shape"/>
</filter>
</defs>
</svg>
