<svg width="22" height="22" viewBox="0 0 36 36" fill="none" xmlns="http://www.w3.org/2000/svg">
<path d="M18.0059 0C10.491 0 8.29324 0.0077545 7.86603 0.0432037C6.32386 0.17143 5.36422 0.414312 4.31876 0.934971C3.51306 1.33516 2.87764 1.79904 2.25053 2.44931C1.10844 3.6352 0.41626 5.09415 0.165692 6.82839C0.0438687 7.67031 0.00842918 7.84202 0.00123054 12.1424C-0.00153817 13.5759 0.00123054 15.4625 0.00123054 17.9929C0.00123054 25.5037 0.00953667 27.6999 0.0455299 28.1264C0.170122 29.6275 0.405462 30.5718 0.90383 31.6049C1.85627 33.5823 3.67531 35.0667 5.81829 35.6206C6.56031 35.8117 7.37984 35.9169 8.43195 35.9668C8.87772 35.9862 13.4212 36 17.9674 36C22.5136 36 27.0598 35.9945 27.4945 35.9723C28.7128 35.915 29.4202 35.82 30.2023 35.6178C31.2649 35.3452 32.2552 34.8439 33.104 34.1489C33.9528 33.4539 34.6398 32.5819 35.1168 31.5938C35.6055 30.5857 35.8533 29.6053 35.9654 28.1826C35.9898 27.8725 36 22.927 36 17.9882C36 13.0486 35.9889 8.11232 35.9646 7.80214C35.851 6.35648 35.6032 5.38439 35.0988 4.35692C34.6849 3.51584 34.2253 2.88772 33.558 2.24548C32.3675 1.10779 30.9111 0.41542 29.1754 0.16506C28.3345 0.0434806 28.167 0.00747756 23.8645 0H18.0059Z" fill="url(#paint0_radial_14_7)"/>
<path d="M18.0059 0C10.491 0 8.29324 0.0077545 7.86603 0.0432037C6.32386 0.17143 5.36422 0.414312 4.31876 0.934971C3.51306 1.33516 2.87764 1.79904 2.25053 2.44931C1.10844 3.6352 0.41626 5.09415 0.165692 6.82839C0.0438687 7.67031 0.00842918 7.84202 0.00123054 12.1424C-0.00153817 13.5759 0.00123054 15.4625 0.00123054 17.9929C0.00123054 25.5037 0.00953667 27.6999 0.0455299 28.1264C0.170122 29.6275 0.405462 30.5718 0.90383 31.6049C1.85627 33.5823 3.67531 35.0667 5.81829 35.6206C6.56031 35.8117 7.37984 35.9169 8.43195 35.9668C8.87772 35.9862 13.4212 36 17.9674 36C22.5136 36 27.0598 35.9945 27.4945 35.9723C28.7128 35.915 29.4202 35.82 30.2023 35.6178C31.2649 35.3452 32.2552 34.8439 33.104 34.1489C33.9528 33.4539 34.6398 32.5819 35.1168 31.5938C35.6055 30.5857 35.8533 29.6053 35.9654 28.1826C35.9898 27.8725 36 22.927 36 17.9882C36 13.0486 35.9889 8.11232 35.9646 7.80214C35.851 6.35648 35.6032 5.38439 35.0988 4.35692C34.6849 3.51584 34.2253 2.88772 33.558 2.24548C32.3675 1.10779 30.9111 0.41542 29.1754 0.16506C28.3345 0.0434806 28.167 0.00747756 23.8645 0H18.0059Z" fill="url(#paint1_radial_14_7)"/>
<path d="M17.9975 4.70807C14.3883 4.70807 13.9353 4.72386 12.5177 4.78838C11.1029 4.85319 10.1372 5.07724 9.29217 5.40597C8.41809 5.74551 7.67663 6.1997 6.93794 6.93887C6.19869 7.67777 5.74462 8.41943 5.40407 9.29347C5.07459 10.139 4.85033 11.1053 4.78665 12.5199C4.72352 13.9379 4.70691 14.3912 4.70691 18.0015C4.70691 21.6118 4.72297 22.0635 4.7872 23.4814C4.85227 24.8966 5.07626 25.8626 5.40462 26.7079C5.74435 27.5822 6.19841 28.3239 6.93738 29.0627C7.6758 29.8022 8.41726 30.2575 9.29079 30.597C10.1364 30.9258 11.1024 31.1498 12.5169 31.2146C13.9345 31.2791 14.3872 31.2949 17.9962 31.2949C21.6057 31.2949 22.0573 31.2791 23.4749 31.2146C24.8897 31.1498 25.8565 30.9258 26.7021 30.597C27.5759 30.2575 28.3163 29.8022 29.0547 29.0627C29.7939 28.3239 30.248 27.5822 30.5885 26.7081C30.9152 25.8626 31.1395 24.8964 31.206 23.4817C31.2696 22.0638 31.2863 21.6118 31.2863 18.0015C31.2863 14.3912 31.2696 13.9381 31.206 12.5202C31.1395 11.105 30.9152 10.139 30.5885 9.29375C30.248 8.41943 29.7939 7.67777 29.0547 6.93887C28.3154 6.19943 27.5762 5.74523 26.7013 5.40597C25.854 5.07724 24.8878 4.85319 23.473 4.78838C22.0554 4.72386 21.6041 4.70807 17.9937 4.70807H17.9975ZM16.8053 7.10366C17.1592 7.1031 17.554 7.10366 17.9975 7.10366C21.5459 7.10366 21.9665 7.1164 23.3677 7.18009C24.6635 7.23936 25.3667 7.45593 25.8352 7.63789C26.4554 7.87883 26.8976 8.16685 27.3624 8.63212C27.8276 9.09739 28.1155 9.54051 28.357 10.1609C28.5389 10.6289 28.7557 11.3324 28.8146 12.6285C28.8783 14.0298 28.8921 14.4508 28.8921 17.9985C28.8921 21.5461 28.8783 21.9671 28.8146 23.3684C28.7554 24.6646 28.5389 25.368 28.357 25.836C28.1161 26.4564 27.8276 26.8981 27.3624 27.3631C26.8973 27.8284 26.4557 28.1164 25.8352 28.3574C25.3673 28.5401 24.6635 28.7562 23.3677 28.8154C21.9668 28.8791 21.5459 28.893 17.9975 28.893C14.4489 28.893 14.0283 28.8791 12.6274 28.8154C11.3316 28.7556 10.6284 28.539 10.1596 28.3571C9.53942 28.1161 9.09642 27.8281 8.63128 27.3628C8.16614 26.8976 7.87819 26.4556 7.63676 25.8349C7.45485 25.3669 7.23806 24.6634 7.17909 23.3673C7.11541 21.966 7.10267 21.545 7.10267 17.9951C7.10267 14.4452 7.11541 14.0265 7.17909 12.6251C7.23834 11.329 7.45485 10.6256 7.63676 10.157C7.87764 9.53663 8.16614 9.09352 8.63128 8.62825C9.09642 8.16298 9.53942 7.87495 10.1596 7.63345C10.6281 7.45067 11.3316 7.23465 12.6274 7.17511C13.8533 7.11972 14.3285 7.1031 16.8053 7.10033V7.10366ZM25.0915 9.31092C24.7761 9.31092 24.4677 9.40449 24.2055 9.5798C23.9432 9.75511 23.7388 10.0043 23.6181 10.2958C23.4974 10.5873 23.4659 10.9081 23.5274 11.2175C23.589 11.527 23.741 11.8112 23.9641 12.0343C24.1871 12.2574 24.4714 12.4093 24.7808 12.4708C25.0901 12.5322 25.4108 12.5006 25.7022 12.3798C25.9936 12.2589 26.2426 12.0544 26.4178 11.792C26.593 11.5296 26.6864 11.2211 26.6863 10.9056C26.6863 10.0249 25.972 9.31037 25.0915 9.31037V9.31092ZM17.9975 11.1748C14.2285 11.1748 11.1727 14.2314 11.1727 18.0015C11.1727 21.7716 14.2285 24.8268 17.9975 24.8268C21.7666 24.8268 24.8216 21.7716 24.8216 18.0015C24.8216 14.2314 21.7666 11.1748 17.9975 11.1748ZM17.9975 13.5704C20.444 13.5704 22.4275 15.5541 22.4275 18.0015C22.4275 20.4486 20.444 22.4326 17.9975 22.4326C15.5508 22.4326 13.5676 20.4486 13.5676 18.0015C13.5676 15.5541 15.5508 13.5704 17.9975 13.5704Z" fill="white"/>
<defs>
<radialGradient id="paint0_radial_14_7" cx="0" cy="0" r="1" gradientUnits="userSpaceOnUse" gradientTransform="translate(9.56255 38.7728) rotate(-90) scale(35.6787 33.184)">
<stop stop-color="#FFDD55"/>
<stop offset="0.1" stop-color="#FFDD55"/>
<stop offset="0.5" stop-color="#FF543E"/>
<stop offset="1" stop-color="#C837AB"/>
</radialGradient>
<radialGradient id="paint1_radial_14_7" cx="0" cy="0" r="1" gradientUnits="userSpaceOnUse" gradientTransform="translate(-6.03019 2.59338) rotate(78.6806) scale(15.9485 65.7404)">
<stop stop-color="#3771C8"/>
<stop offset="0.128" stop-color="#3771C8"/>
<stop offset="1" stop-color="#6600FF" stop-opacity="0"/>
</radialGradient>
</defs>
</svg>
