<svg width="442" height="635" viewBox="0 0 442 635" fill="none" xmlns="http://www.w3.org/2000/svg">
<g clip-path="url(#clip0_34_389)">
<path d="M6.34222 417.684L138.186 444.455L152.726 433.699L147.088 382.829L6.34222 417.684Z" fill="#A22021"/>
<path d="M435.358 417.684L303.514 444.455L288.974 433.699L294.613 382.829L435.358 417.684Z" fill="#A22021"/>
<path d="M321.156 303.748C314.066 303.748 308.318 298 308.318 290.91C308.318 283.819 314.066 278.07 321.156 278.07C328.247 278.07 333.995 283.819 333.995 290.91C333.995 298 328.247 303.748 321.156 303.748ZM321.156 353.679C314.066 353.679 308.318 347.931 308.318 340.839C308.318 333.748 314.066 328 321.156 328C328.247 328 333.995 333.748 333.995 340.839C333.995 347.931 328.247 353.679 321.156 353.679ZM271.003 303.748C263.912 303.748 258.164 298 258.164 290.91C258.164 283.819 263.912 278.07 271.003 278.07C278.094 278.07 283.843 283.819 283.843 290.91C283.843 298 278.094 303.748 271.003 303.748ZM271.003 353.679C263.912 353.679 258.164 347.931 258.164 340.839C258.164 333.748 263.912 328 271.003 328C278.094 328 283.843 333.748 283.843 340.839C283.843 347.931 278.094 353.679 271.003 353.679ZM278.279 453.407C276.747 454.664 275.208 455.872 273.664 457.027C256.348 469.982 238.579 476.55 220.851 476.55C203.122 476.55 185.352 469.982 168.036 457.027C166.492 455.872 164.954 454.666 163.422 453.407C160.252 450.806 163.616 446.486 167.822 447.727C185.392 452.911 203.134 455.532 220.851 455.532C238.567 455.532 256.308 452.911 273.879 447.727C278.086 446.486 281.448 450.806 278.279 453.407ZM157.858 340.839C157.858 333.748 163.607 328 170.698 328C177.788 328 183.536 333.748 183.536 340.839C183.536 347.931 177.788 353.679 170.698 353.679C163.607 353.679 157.858 347.931 157.858 340.839ZM120.544 303.748C113.454 303.748 107.706 298 107.706 290.91C107.706 283.819 113.454 278.07 120.544 278.07C127.635 278.07 133.383 283.819 133.383 290.91C133.383 298 127.635 303.748 120.544 303.748ZM120.544 353.679C113.454 353.679 107.706 347.931 107.706 340.839C107.706 333.748 113.454 328 120.544 328C127.635 328 133.383 333.748 133.383 340.839C133.383 347.931 127.635 353.679 120.544 353.679ZM170.698 278.07C177.788 278.07 183.536 283.819 183.536 290.91C183.536 298 177.788 303.748 170.698 303.748C163.607 303.748 157.858 298 157.858 290.91C157.858 283.819 163.607 278.07 170.698 278.07ZM220.851 328C227.942 328 233.69 333.748 233.69 340.839C233.69 347.931 227.942 353.679 220.851 353.679C213.759 353.679 208.011 347.931 208.011 340.839C208.011 333.748 213.759 328 220.851 328ZM220.851 278.07C227.942 278.07 233.69 283.819 233.69 290.91C233.69 298 227.942 303.748 220.851 303.748C213.759 303.748 208.011 298 208.011 290.91C208.011 283.819 213.759 278.07 220.851 278.07ZM220.851 67.1776C109.476 67.1776 19.1897 117.53 19.1897 228.903C19.1897 325.836 87.5817 455.375 178.74 487.338C185.595 489.742 190.158 496.235 189.943 503.496L185.824 617.056C185.548 626.39 193.04 634.107 202.379 634.107H239.323C248.66 634.107 256.154 626.39 255.878 617.056L251.758 503.496C251.543 496.235 256.106 489.742 262.96 487.338C354.12 455.374 422.511 325.836 422.511 228.903C422.511 117.53 332.224 67.1776 220.851 67.1776Z" fill="#20557B"/>
<path d="M188.855 141.119L170.697 159.276L152.54 141.119L170.697 122.962L188.855 141.119Z" fill="white"/>
<path d="M239.008 141.119L220.85 159.276L202.693 141.119L220.85 122.962L239.008 141.119Z" fill="white"/>
<path d="M289.161 141.119L271.003 159.276L252.846 141.119L271.003 122.962L289.161 141.119Z" fill="white"/>
<path d="M188.855 191.049L170.697 209.207L152.54 191.049L170.697 172.892L188.855 191.049Z" fill="white"/>
<path d="M138.925 191.049L120.767 209.207L102.61 191.049L120.767 172.892L138.925 191.049Z" fill="white"/>
<path d="M239.008 191.049L220.85 209.207L202.693 191.049L220.85 172.892L239.008 191.049Z" fill="white"/>
<path d="M289.161 191.049L271.003 209.207L252.846 191.049L271.003 172.892L289.161 191.049Z" fill="white"/>
<path d="M339.091 191.049L320.933 209.207L302.776 191.049L320.933 172.892L339.091 191.049Z" fill="white"/>
<path d="M188.855 241.203L170.697 259.36L152.54 241.203L170.697 223.045L188.855 241.203Z" fill="white"/>
<path d="M138.925 241.203L120.767 259.36L102.61 241.203L120.767 223.045L138.925 241.203Z" fill="white"/>
<path d="M239.008 241.203L220.85 259.36L202.693 241.203L220.85 223.045L239.008 241.203Z" fill="white"/>
<path d="M289.161 241.203L271.003 259.36L252.846 241.203L271.003 223.045L289.161 241.203Z" fill="white"/>
<path d="M339.091 241.203L320.933 259.36L302.776 241.203L320.933 223.045L339.091 241.203Z" fill="white"/>
<path d="M435.359 417.684V254.936C364.941 247.061 293.369 243.009 220.851 243.009C148.332 243.009 76.7599 247.061 6.34253 254.936V417.684H435.359Z" fill="#DB1E25"/>
<path d="M288.974 463.124C288.974 500.748 258.474 531.248 220.85 531.248C183.227 531.248 152.727 500.748 152.727 463.124C152.727 425.5 183.227 395 220.85 395C258.474 395 288.974 425.5 288.974 463.124Z" fill="#DB1E25"/>
<path d="M288.974 463.124C288.974 500.748 258.474 531.248 220.85 531.248C183.227 531.248 152.727 500.748 152.727 463.124C152.727 425.5 183.227 395 220.85 395C258.474 395 288.974 425.5 288.974 463.124Z" fill="#DB1E25"/>
<path d="M176.527 441.258H200.213C200.213 441.258 204.359 445.38 210.539 441.302C210.539 441.302 214.96 445.515 208.86 451.662C206.315 454.111 202.213 458.056 202.213 458.056C202.213 458.056 195.979 462.979 197.551 469.762C199.121 476.546 206.877 479.167 206.877 479.167C206.877 479.167 209.303 480.316 218.14 481.638C220.284 482.059 222.191 483.147 223.637 484.671L246.86 509.99" stroke="white" stroke-width="1.4" stroke-miterlimit="10"/>
<path d="M251.56 509.989L228.263 484.539C227.938 484.185 227.739 483.713 227.739 483.196C227.739 482.1 228.627 481.213 229.722 481.213H242.168" stroke="white" stroke-width="1.4" stroke-miterlimit="10"/>
<path d="M242.168 481.213C243.449 481.213 244.488 482.252 244.488 483.533C244.488 484.816 243.449 485.854 242.168 485.854" stroke="white" stroke-width="1.4" stroke-miterlimit="10"/>
<path d="M247.866 480.899C248.456 481.616 248.809 482.533 248.809 483.533C248.809 484.535 248.456 485.452 247.866 486.169" stroke="white" stroke-width="1.4" stroke-miterlimit="10"/>
<path d="M252.472 486.169L252.477 486.158C252.86 485.364 253.074 484.474 253.074 483.534C253.074 481.308 251.873 479.364 250.084 478.312L238.041 471.356" stroke="white" stroke-width="1.4" stroke-miterlimit="10"/>
<path d="M248.366 433.753C250.673 435.26 252.197 437.864 252.197 440.824C252.197 442.798 251.519 444.613 250.383 446.05L237.957 462.273" stroke="white" stroke-width="1.4" stroke-miterlimit="10"/>
<path d="M242.88 427.625C246.191 428.765 248.571 431.909 248.571 435.607C248.571 437.581 247.892 439.396 246.757 440.833L234.684 456.595" stroke="white" stroke-width="1.4" stroke-miterlimit="10"/>
<path d="M236.527 423.371C240.711 423.871 243.954 427.432 243.954 431.751C243.954 433.724 243.277 435.54 242.142 436.977L230.625 452.013" stroke="white" stroke-width="1.4" stroke-miterlimit="10"/>
<path d="M230.571 420.455C235.031 420.681 238.577 424.368 238.577 428.884C238.577 430.857 237.899 432.673 236.765 434.111L225.85 448.365" stroke="white" stroke-width="1.4" stroke-miterlimit="10"/>
<path d="M225.649 418.025C229.813 418.544 233.034 422.096 233.034 426.4C233.034 428.373 232.357 430.189 231.222 431.626L216.914 450.181" stroke="white" stroke-width="1.4" stroke-miterlimit="10"/>
<path d="M219.222 415.056C223.883 415.056 227.662 418.835 227.662 423.496C227.662 425.47 226.984 427.286 225.85 428.723L217.59 439.667" stroke="white" stroke-width="1.4" stroke-miterlimit="10"/>
<path d="M187.473 509.989L210.704 480.277" stroke="white" stroke-width="1.4" stroke-miterlimit="10"/>
<path d="M191.737 509.989L214.411 481.027" stroke="white" stroke-width="1.4" stroke-miterlimit="10"/>
<path d="M176.527 438.522H199.431C199.431 438.522 200.412 435.277 205.52 435.682L208.221 435.866C215.416 436.442 217.616 433.909 217.616 433.909C217.616 433.909 214.96 436.935 216.609 438.614C218.216 440.051 219.227 442.141 219.227 444.466C219.227 446.278 218.613 447.947 217.581 449.275L211.717 456.938C210.753 458.241 210.185 459.853 210.185 461.598C210.185 464.539 211.801 467.103 214.195 468.449" stroke="white" stroke-width="1.4" stroke-miterlimit="10"/>
<path d="M204.233 438.499C204.233 438.357 204.117 438.239 203.973 438.239C203.83 438.239 203.714 438.357 203.714 438.499C203.714 438.642 203.83 438.759 203.973 438.759C204.117 438.759 204.233 438.642 204.233 438.499Z" stroke="white" stroke-width="1.4" stroke-miterlimit="10"/>
<path d="M252.102 442.083C253.544 443.598 254.428 445.646 254.428 447.902C254.428 449.875 253.75 451.69 252.616 453.127L239.86 469.78C238.312 471.62 235.992 472.79 233.398 472.79H230.7" stroke="white" stroke-width="1.4" stroke-miterlimit="10"/>
<path d="M56.9083 308.595L56.8443 287.08C52.3936 287.452 47.9429 287.835 43.4936 288.226C43.5483 318.978 43.6029 349.73 43.6576 380.482C48.1456 380.423 52.6336 380.367 57.1216 380.312C57.0923 370.691 57.0643 361.068 57.0363 351.447C54.9149 351.519 53.8536 351.555 51.7336 351.628C51.7203 346.271 51.7069 340.914 51.6936 335.556C58.7563 335.227 65.8203 334.914 72.8856 334.615L73.0936 385.75C73.3403 391.615 68.0043 396.199 62.4923 396.447H38.3629C32.6883 396.635 28.0016 391.524 27.7189 386.123V284.447C28.0309 278.982 32.4496 273.292 38.2123 272.807C46.1603 271.98 54.1109 271.196 62.0669 270.455C67.6056 270.171 72.9069 274.559 72.6656 280.399C72.7016 289.464 72.7389 298.531 72.7763 307.596C67.4856 307.912 62.1963 308.246 56.9083 308.595Z" fill="white"/>
<path d="M102.926 325.001C107.532 324.828 109.836 324.747 114.446 324.589C114.372 310.788 114.297 296.985 114.222 283.183C109.614 283.429 107.312 283.559 102.71 283.832C102.782 297.555 102.854 311.279 102.926 325.001ZM116.486 341.252C111.996 341.368 107.505 341.491 103.013 341.617C103.109 359.895 103.205 378.171 103.301 396.447H87.3316C87.129 353.756 86.925 311.064 86.7223 268.372C97.6263 267.547 108.534 266.808 119.45 266.156C125.172 266.079 130.384 270.849 130.161 276.785C130.242 291.992 130.325 307.2 130.406 322.407C130.432 327.081 128.141 330.695 124.952 331.715C129.834 332.904 132.413 337.833 132.466 342.559C132.562 360.521 132.658 378.484 132.754 396.447H116.785C116.686 378.048 116.586 359.651 116.486 341.252Z" fill="white"/>
<path d="M161.44 264.219C161.612 302.628 161.783 341.038 161.955 379.447C166.455 379.428 170.953 379.411 175.452 379.395C175.307 340.867 175.163 302.338 175.017 263.81C180.388 263.67 185.759 263.554 191.129 263.462L191.456 385.239C191.703 391.18 186.551 396.163 180.839 396.447H156.708C150.732 396.628 146.289 390.848 146.005 385.355C145.803 345.183 145.599 305.011 145.396 264.839C150.743 264.607 156.091 264.4 161.44 264.219Z" fill="white"/>
<path d="M217.911 352.671C211.489 322.887 205.013 293.114 198.482 263.353C204.05 263.282 209.618 263.237 215.186 263.219C218.794 284.151 222.382 305.086 225.946 326.026C229.531 305.107 233.137 284.193 236.761 263.282C242.322 263.333 247.882 263.41 253.442 263.514C246.891 293.226 240.394 322.951 233.951 352.687C233.931 367.274 233.913 381.861 233.894 396.447H217.925C217.921 381.855 217.915 367.263 217.911 352.671Z" fill="white"/>
<path d="M301.674 396.447H260.509C260.66 352.189 260.81 307.929 260.961 263.67C274.35 263.997 287.733 264.457 301.113 265.054C301.084 270.685 301.054 276.315 301.025 281.946C293.01 281.635 284.994 281.362 276.977 281.126C276.924 293.289 276.872 305.451 276.82 317.613C282.456 317.722 288.09 317.846 293.726 317.987C293.698 323.631 293.67 329.277 293.642 334.922C288.01 334.811 282.378 334.714 276.745 334.629C276.681 349.563 276.617 364.499 276.552 379.434C284.956 379.47 293.358 379.513 301.762 379.562C301.733 385.19 301.704 390.819 301.674 396.447Z" fill="white"/>
<path d="M330.447 324.7C335.057 324.861 337.359 324.945 341.963 325.122C342.034 311.422 342.106 297.722 342.177 284.024C337.577 283.744 335.275 283.61 330.67 283.356C330.595 297.137 330.522 310.918 330.447 324.7ZM343.826 341.769C339.337 341.636 334.847 341.509 330.358 341.386L330.062 396.448H314.093C314.327 352.877 314.563 309.308 314.798 265.737C325.726 266.344 336.646 267.036 347.563 267.816C353.235 268.514 358.323 273.617 358.105 279.577C358.035 294.429 357.967 309.281 357.898 324.133C357.877 328.7 355.562 332.076 352.371 332.872C357.133 334.321 359.726 339.168 359.754 343.92C359.674 361.429 359.594 378.938 359.515 396.448H343.546L343.826 341.769Z" fill="white"/>
<path d="M413.982 396.447H372.821C372.982 354.261 373.142 312.073 373.304 269.886C386.469 271.063 399.62 272.371 412.76 273.813C412.758 279.067 412.758 284.323 412.757 289.578C404.866 288.826 396.973 288.111 389.076 287.433C389.045 298.93 389.014 310.427 388.985 321.925C394.562 322.246 400.14 322.583 405.716 322.937C405.71 328.226 405.705 333.514 405.7 338.803C400.116 338.526 394.529 338.262 388.942 338.009C388.905 352.127 388.869 366.246 388.832 380.365C397.216 380.47 405.598 380.581 413.982 380.698V396.447Z" fill="white"/>
<path d="M38.0545 116.765L12.5337 91.546L21.0548 82.9228C23.0332 80.9206 25.0118 79.6412 26.9905 79.0843C28.9692 78.5109 30.8729 78.5202 32.7016 79.1122C34.5302 79.7042 36.1964 80.7431 37.7001 82.229C39.2038 83.7148 40.2666 85.3726 40.8887 87.2023C41.5189 89.0237 41.5716 90.9312 41.0466 92.9246C40.5134 94.9099 39.2658 96.8953 37.3038 98.8808L31.1962 105.062L28.4547 102.353L34.4638 96.2714C35.8183 94.9007 36.6693 93.566 37.0166 92.2673C37.364 90.9686 37.3195 89.7342 36.8831 88.5641C36.4466 87.3774 35.7174 86.2793 34.6955 85.2695C33.6737 84.2598 32.5711 83.5479 31.3876 83.1337C30.2124 82.7113 28.9817 82.6938 27.6957 83.0814C26.4013 83.4608 25.0687 84.3441 23.6978 85.7315L18.329 91.1646L41.1084 113.674L38.0545 116.765Z" fill="#20557B"/>
<path d="M69.5962 88.6032L65.689 90.9442L58.5497 53.3958L62.3968 51.0908L92.1382 75.097L88.2309 77.4381L63.5108 57.0404L63.2703 57.1844L69.5962 88.6032ZM63.8357 75.7164L79.585 66.2801L81.5659 69.5863L65.8166 79.0225L63.8357 75.7164Z" fill="#20557B"/>
<path d="M119.316 64.4379L108.808 67.9275L97.5004 33.8773L108.474 30.2331C111.777 29.1361 114.83 28.8791 117.632 29.4621C120.431 30.034 122.878 31.3811 124.974 33.5034C127.065 35.6146 128.697 38.4326 129.867 41.9573C131.045 45.5042 131.427 48.7677 131.014 51.7477C130.597 54.7167 129.409 57.2896 127.449 59.4665C125.485 61.6323 122.774 63.2894 119.316 64.4379ZM111.717 62.9004L117.835 60.8685C120.651 59.9335 122.804 58.6156 124.294 56.9146C125.784 55.2136 126.651 53.2091 126.893 50.9011C127.136 48.593 126.797 46.0535 125.877 43.2825C124.964 40.5336 123.729 38.3162 122.172 36.6304C120.612 34.9334 118.763 33.8492 116.625 33.3778C114.483 32.8952 112.083 33.0957 109.422 33.9791L102.838 36.1657L111.717 62.9004Z" fill="#20557B"/>
<path d="M154.244 54.9555L148.691 19.5089L170.084 16.1581L170.68 19.9658L153.58 22.6443L155.456 34.6214L171.449 32.1164L172.045 35.9241L156.053 38.4291L157.94 50.4754L175.317 47.7536L175.913 51.5613L154.244 54.9555Z" fill="#20557B"/>
<path d="M198.378 49.5344L197.303 13.6717L201.646 13.5416L202.605 45.5519L219.276 45.0524L219.391 48.9049L198.378 49.5344Z" fill="#20557B"/>
<path d="M296.952 31.5497L292.663 30.8586C292.608 29.5839 292.338 28.4285 291.855 27.3924C291.383 26.3581 290.748 25.4514 289.951 24.6723C289.167 23.8836 288.259 23.2404 287.227 22.743C286.195 22.2455 285.091 21.902 283.915 21.7125C281.77 21.367 279.74 21.5959 277.825 22.3992C275.92 23.2044 274.285 24.5794 272.919 26.5242C271.564 28.4708 270.64 30.9777 270.146 34.0448C269.652 37.112 269.742 39.7823 270.417 42.0559C271.103 44.3313 272.223 46.1503 273.778 47.5129C275.345 48.8772 277.2 49.7322 279.345 50.0777C280.521 50.2672 281.677 50.2879 282.813 50.1396C283.949 49.9914 285.012 49.6717 286.002 49.1806C287.005 48.6798 287.894 48.0125 288.667 47.1789C289.453 46.3356 290.072 45.3232 290.523 44.1418L294.812 44.8329C294.197 46.5912 293.348 48.1165 292.265 49.4088C291.181 50.7011 289.924 51.7467 288.494 52.5455C287.066 53.3328 285.52 53.8586 283.857 54.123C282.205 54.3892 280.486 54.3783 278.699 54.0904C275.678 53.6037 273.11 52.4329 270.995 50.578C268.881 48.7231 267.368 46.3263 266.458 43.3878C265.547 40.4492 265.393 37.112 265.995 33.376C266.597 29.6401 267.791 26.5202 269.579 24.0164C271.366 21.5125 273.555 19.7121 276.145 18.6152C278.735 17.5182 281.541 17.2131 284.562 17.6999C286.349 17.9878 287.985 18.5175 289.469 19.2891C290.965 20.0625 292.267 21.0529 293.374 22.2604C294.482 23.4564 295.348 24.838 295.971 26.4053C296.596 27.961 296.923 29.6758 296.952 31.5497Z" fill="#20557B"/>
<path d="M310.37 60.4368L321.711 26.3975L325.833 27.7707L315.71 58.1535L331.533 63.4251L330.315 67.0817L310.37 60.4368Z" fill="#20557B"/>
<path d="M386.81 55.4045L390.577 57.5701L378.736 78.1644C377.513 80.2906 375.92 81.9009 373.957 82.9952C372.01 84.0852 369.854 84.5901 367.489 84.5099C365.129 84.4196 362.729 83.673 360.289 82.27C357.849 80.867 355.997 79.1686 354.731 77.1748C353.472 75.1709 352.819 73.0506 352.771 70.8137C352.739 68.5726 353.335 66.3889 354.557 64.2627L366.398 43.6684L370.165 45.834L358.498 66.1245C357.625 67.6432 357.182 69.187 357.169 70.7559C357.162 72.3146 357.581 73.7883 358.426 75.1769C359.288 76.5612 360.584 77.751 362.315 78.7465C364.047 79.742 365.727 80.2636 367.357 80.3114C368.992 80.3491 370.476 79.9699 371.81 79.1738C373.159 78.3734 374.271 77.2138 375.144 75.695L386.81 55.4045Z" fill="#20557B"/>
<path d="M386.803 99.7761L412.243 74.4753L421.088 83.3691C422.851 85.1412 423.998 86.9075 424.53 88.6681C425.07 90.4203 425.107 92.0887 424.64 93.673C424.182 95.2492 423.331 96.6549 422.089 97.8903C420.996 98.9775 419.9 99.6806 418.8 99.9997C417.709 100.327 416.644 100.382 415.604 100.164C414.572 99.9551 413.595 99.5849 412.671 99.0539L412.423 99.3009C413.147 100.129 413.652 101.183 413.938 102.464C414.223 103.745 414.166 105.111 413.766 106.564C413.365 108.016 412.494 109.41 411.153 110.744C409.877 112.012 408.442 112.863 406.847 113.296C405.252 113.73 403.535 113.618 401.695 112.96C399.855 112.303 397.938 110.972 395.945 108.968L386.803 99.7761ZM392.6 100.139L398.678 106.25C400.679 108.262 402.489 109.304 404.108 109.374C405.743 109.445 407.119 108.924 408.237 107.812C409.098 106.956 409.675 105.946 409.967 104.782C410.268 103.61 410.234 102.4 409.866 101.152C409.506 99.8959 408.774 98.7129 407.67 97.6032L401.444 91.3428L392.6 100.139ZM404.127 88.6744L409.81 94.3882C410.732 95.3157 411.746 95.9709 412.852 96.3538C413.966 96.745 415.072 96.8306 416.171 96.6106C417.278 96.3989 418.279 95.8483 419.173 94.9588C420.291 93.847 420.853 92.5148 420.857 90.9622C420.869 89.4013 420.035 87.7763 418.355 86.0869L412.574 80.2737L404.127 88.6744Z" fill="#20557B"/>
</g>
<defs>
<clipPath id="clip0_34_389">
<rect width="440.186" height="634.152" fill="white" transform="translate(0.857971 0.847656)"/>
</clipPath>
</defs>
</svg>
