<svg width="430" height="568" viewBox="0 0 430 568" fill="none" xmlns="http://www.w3.org/2000/svg">
<g clip-path="url(#clip0_34_489)">
<path d="M0.342255 320.592L132.186 358.702L146.726 336.607L141.088 285.738L0.342255 320.592Z" fill="#A22021"/>
<path d="M429.359 320.592L297.515 358.702L282.975 336.607L288.613 285.738L429.359 320.592Z" fill="#A22021"/>
<path d="M315.156 236.748C308.066 236.748 302.318 231 302.318 223.91C302.318 216.819 308.066 211.07 315.156 211.07C322.247 211.07 327.995 216.819 327.995 223.91C327.995 231 322.247 236.748 315.156 236.748ZM315.156 286.679C308.066 286.679 302.318 280.931 302.318 273.839C302.318 266.748 308.066 261 315.156 261C322.247 261 327.995 266.748 327.995 273.839C327.995 280.931 322.247 286.679 315.156 286.679ZM265.003 236.748C257.912 236.748 252.164 231 252.164 223.91C252.164 216.819 257.912 211.07 265.003 211.07C272.094 211.07 277.843 216.819 277.843 223.91C277.843 231 272.094 236.748 265.003 236.748ZM265.003 286.679C257.912 286.679 252.164 280.931 252.164 273.839C252.164 266.748 257.912 261 265.003 261C272.094 261 277.843 266.748 277.843 273.839C277.843 280.931 272.094 286.679 265.003 286.679ZM272.279 386.407C270.747 387.664 269.208 388.872 267.664 390.027C250.348 402.982 232.579 409.55 214.851 409.55C197.122 409.55 179.352 402.982 162.036 390.027C160.492 388.872 158.954 387.666 157.422 386.407C154.252 383.806 157.616 379.486 161.822 380.727C179.392 385.911 197.134 388.532 214.851 388.532C232.567 388.532 250.308 385.911 267.879 380.727C272.086 379.486 275.448 383.806 272.279 386.407ZM151.858 273.839C151.858 266.748 157.607 261 164.698 261C171.788 261 177.536 266.748 177.536 273.839C177.536 280.931 171.788 286.679 164.698 286.679C157.607 286.679 151.858 280.931 151.858 273.839ZM114.544 236.748C107.454 236.748 101.706 231 101.706 223.91C101.706 216.819 107.454 211.07 114.544 211.07C121.635 211.07 127.383 216.819 127.383 223.91C127.383 231 121.635 236.748 114.544 236.748ZM114.544 286.679C107.454 286.679 101.706 280.931 101.706 273.839C101.706 266.748 107.454 261 114.544 261C121.635 261 127.383 266.748 127.383 273.839C127.383 280.931 121.635 286.679 114.544 286.679ZM164.698 211.07C171.788 211.07 177.536 216.819 177.536 223.91C177.536 231 171.788 236.748 164.698 236.748C157.607 236.748 151.858 231 151.858 223.91C151.858 216.819 157.607 211.07 164.698 211.07ZM214.851 261C221.942 261 227.69 266.748 227.69 273.839C227.69 280.931 221.942 286.679 214.851 286.679C207.759 286.679 202.011 280.931 202.011 273.839C202.011 266.748 207.759 261 214.851 261ZM214.851 211.07C221.942 211.07 227.69 216.819 227.69 223.91C227.69 231 221.942 236.748 214.851 236.748C207.759 236.748 202.011 231 202.011 223.91C202.011 216.819 207.759 211.07 214.851 211.07ZM214.851 0.177595C103.476 0.177595 13.1897 50.5296 13.1897 161.903C13.1897 258.836 81.5817 388.375 172.74 420.338C179.595 422.742 184.158 429.235 183.943 436.496L179.824 550.056C179.548 559.39 187.04 567.107 196.379 567.107H233.323C242.66 567.107 250.154 559.39 249.878 550.056L245.758 436.496C245.543 429.235 250.106 422.742 256.96 420.338C348.12 388.374 416.511 258.836 416.511 161.903C416.511 50.5296 326.224 0.177595 214.851 0.177595Z" fill="#20557B"/>
<path d="M182.855 74.119L164.697 92.2764L146.54 74.119L164.697 55.9617L182.855 74.119Z" fill="white"/>
<path d="M233.008 74.119L214.85 92.2764L196.693 74.119L214.85 55.9617L233.008 74.119Z" fill="white"/>
<path d="M283.161 74.119L265.003 92.2764L246.846 74.119L265.003 55.9617L283.161 74.119Z" fill="white"/>
<path d="M182.855 124.049L164.697 142.207L146.54 124.049L164.697 105.892L182.855 124.049Z" fill="white"/>
<path d="M132.925 124.049L114.767 142.207L96.6099 124.049L114.767 105.892L132.925 124.049Z" fill="white"/>
<path d="M233.008 124.049L214.85 142.207L196.693 124.049L214.85 105.892L233.008 124.049Z" fill="white"/>
<path d="M283.161 124.049L265.003 142.207L246.846 124.049L265.003 105.892L283.161 124.049Z" fill="white"/>
<path d="M333.091 124.049L314.933 142.207L296.776 124.049L314.933 105.892L333.091 124.049Z" fill="white"/>
<path d="M182.855 174.203L164.697 192.36L146.54 174.203L164.697 156.045L182.855 174.203Z" fill="white"/>
<path d="M132.925 174.203L114.767 192.36L96.6099 174.203L114.767 156.045L132.925 174.203Z" fill="white"/>
<path d="M233.008 174.203L214.85 192.36L196.693 174.203L214.85 156.045L233.008 174.203Z" fill="white"/>
<path d="M283.161 174.203L265.003 192.36L246.846 174.203L265.003 156.045L283.161 174.203Z" fill="white"/>
<path d="M333.091 174.203L314.933 192.36L296.776 174.203L314.933 156.045L333.091 174.203Z" fill="white"/>
<path d="M429.359 320.592V186.13C358.941 178.255 287.369 174.203 214.851 174.203C142.332 174.203 70.7599 178.255 0.342529 186.13V320.592H429.359Z" fill="#DB1E25"/>
<path d="M290.19 383.362C290.19 424.971 256.459 458.7 214.851 458.7C173.242 458.7 139.511 424.971 139.511 383.362C139.511 341.752 173.242 308.023 214.851 308.023C256.459 308.023 290.19 341.752 290.19 383.362Z" fill="#DB1E25"/>
<path d="M290.19 383.362C290.19 424.971 256.459 458.7 214.851 458.7C173.242 458.7 139.511 424.971 139.511 383.362C139.511 341.752 173.242 308.023 214.851 308.023C256.459 308.023 290.19 341.752 290.19 383.362Z" fill="#DB1E25"/>
<path d="M165.832 359.179H192.026C192.026 359.179 196.612 363.738 203.446 359.229C203.446 359.229 208.336 363.887 201.589 370.686C198.774 373.394 194.24 377.758 194.24 377.758C194.24 377.758 187.344 383.202 189.082 390.703C190.82 398.205 199.397 401.105 199.397 401.105C199.397 401.105 202.08 402.375 211.853 403.835C214.224 404.303 216.333 405.506 217.933 407.191L243.614 435.191" stroke="white" stroke-width="1.548" stroke-miterlimit="10"/>
<path d="M248.813 435.191L223.049 407.045C222.689 406.654 222.469 406.133 222.469 405.559C222.469 404.349 223.451 403.367 224.661 403.367H238.425" stroke="white" stroke-width="1.548" stroke-miterlimit="10"/>
<path d="M238.426 403.367C239.843 403.367 240.993 404.516 240.993 405.934C240.993 407.351 239.843 408.499 238.426 408.499" stroke="white" stroke-width="1.548" stroke-miterlimit="10"/>
<path d="M244.728 403.019C245.38 403.811 245.771 404.827 245.771 405.933C245.771 407.039 245.38 408.055 244.728 408.847" stroke="white" stroke-width="1.548" stroke-miterlimit="10"/>
<path d="M249.821 408.848C249.822 408.844 249.825 408.84 249.826 408.836C250.25 407.957 250.488 406.973 250.488 405.933C250.488 403.472 249.158 401.321 247.18 400.158L233.862 392.466" stroke="white" stroke-width="1.548" stroke-miterlimit="10"/>
<path d="M245.28 350.88C247.831 352.547 249.516 355.427 249.516 358.7C249.516 360.883 248.767 362.891 247.512 364.48L233.768 382.421" stroke="white" stroke-width="1.548" stroke-miterlimit="10"/>
<path d="M239.214 344.103C242.875 345.365 245.507 348.841 245.507 352.931C245.507 355.114 244.758 357.121 243.502 358.711L230.15 376.142" stroke="white" stroke-width="1.548" stroke-miterlimit="10"/>
<path d="M232.188 339.398C236.815 339.951 240.401 343.89 240.401 348.666C240.401 350.849 239.653 352.855 238.397 354.446L225.66 371.075" stroke="white" stroke-width="1.548" stroke-miterlimit="10"/>
<path d="M225.601 336.173C230.533 336.422 234.454 340.501 234.454 345.494C234.454 347.677 233.705 349.685 232.45 351.274L220.379 367.04" stroke="white" stroke-width="1.548" stroke-miterlimit="10"/>
<path d="M220.157 333.486C224.762 334.059 228.325 337.987 228.325 342.749C228.325 344.93 227.575 346.938 226.321 348.527L210.497 369.047" stroke="white" stroke-width="1.548" stroke-miterlimit="10"/>
<path d="M213.049 330.203C218.204 330.203 222.384 334.381 222.384 339.537C222.384 341.72 221.635 343.727 220.379 345.317L211.244 357.42" stroke="white" stroke-width="1.548" stroke-miterlimit="10"/>
<path d="M177.937 435.191L203.628 402.333" stroke="white" stroke-width="1.548" stroke-miterlimit="10"/>
<path d="M182.653 435.191L207.728 403.161" stroke="white" stroke-width="1.548" stroke-miterlimit="10"/>
<path d="M165.832 356.154H191.162C191.162 356.154 192.248 352.565 197.897 353.014L200.884 353.217C208.84 353.854 211.273 351.052 211.273 351.052C211.273 351.052 208.336 354.4 210.16 356.256C211.937 357.845 213.054 360.156 213.054 362.728C213.054 364.732 212.376 366.578 211.236 368.048L204.749 376.521C203.685 377.962 203.054 379.745 203.054 381.676C203.054 384.928 204.844 387.762 207.49 389.25" stroke="white" stroke-width="1.548" stroke-miterlimit="10"/>
<path d="M196.473 356.129C196.473 355.97 196.345 355.842 196.186 355.842C196.027 355.842 195.899 355.97 195.899 356.129C195.899 356.288 196.027 356.416 196.186 356.416C196.345 356.416 196.473 356.288 196.473 356.129Z" stroke="white" stroke-width="1.548" stroke-miterlimit="10"/>
<path d="M249.413 360.092C251.006 361.766 251.985 364.032 251.985 366.526C251.985 368.709 251.235 370.716 249.981 372.306L235.874 390.722C234.161 392.758 231.595 394.052 228.727 394.052H225.743" stroke="white" stroke-width="1.548" stroke-miterlimit="10"/>
<path d="M43.4797 216.448C39.4877 216.792 37.4931 216.969 33.5077 217.333C33.5264 228.197 33.5371 233.631 33.5557 244.496C37.5571 244.253 39.5584 244.135 43.5637 243.904C43.5304 232.921 43.5131 227.431 43.4797 216.448ZM21.7171 206.507C31.9584 205.361 37.0904 204.825 47.3771 203.831C51.8384 203.399 55.2717 206.937 55.2904 211.339C55.3531 225.807 55.3851 233.041 55.4477 247.511C55.4664 251.912 51.9157 255.773 47.5611 255.963C41.9651 256.208 39.1677 256.335 33.5771 256.599C33.6024 270.853 33.6291 285.107 33.6544 299.361H21.7171V257.179V206.507Z" fill="white"/>
<path d="M85.2071 230.23C85.1631 223.458 85.1417 220.073 85.0991 213.301C81.0831 213.562 79.0764 213.698 75.0671 213.98C75.2097 238.241 75.3524 262.502 75.4951 286.764C79.5231 286.722 81.5377 286.702 85.5684 286.664C85.5244 279.836 85.5031 276.422 85.4591 269.593C90.2271 269.486 92.6124 269.436 97.3831 269.338C97.4417 277.989 97.4724 282.316 97.5311 290.966C97.5617 295.52 94.0057 299.361 89.6297 299.361H71.5897C67.3444 299.361 63.6111 295.621 63.5897 291.188C63.4537 264.356 63.3191 237.524 63.1844 210.69C63.1617 206.257 66.8244 202.056 71.0404 201.706C78.2057 201.112 81.7937 200.833 88.9791 200.313C93.4697 199.988 96.9364 203.74 96.9684 208.293C97.0257 216.83 97.0551 221.1 97.1137 229.637C92.3471 229.862 89.9657 229.982 85.2071 230.23Z" fill="white"/>
<path d="M140.765 227.95C140.719 220.954 140.697 217.456 140.651 210.462C136.606 210.612 134.585 210.692 130.545 210.863C130.715 236.01 130.886 261.156 131.057 286.304C135.091 286.279 137.109 286.267 141.142 286.244C141.082 276.86 141.051 272.167 140.99 262.782C139.397 262.806 138.599 262.819 137.006 262.844C136.971 257.607 136.954 254.988 136.919 249.75C143.297 249.611 146.486 249.547 152.871 249.436C152.953 263.199 153.034 276.96 153.115 290.723C153.143 295.408 149.585 299.36 145.207 299.36H127.166C122.922 299.36 119.181 295.467 119.147 290.854L118.562 207.078C118.53 202.463 122.217 198.219 126.469 198.004C133.695 197.638 137.315 197.472 144.562 197.18C149.091 196.998 152.583 200.976 152.611 205.66C152.663 214.444 152.69 218.836 152.742 227.622C147.947 227.742 145.553 227.807 140.765 227.95Z" fill="white"/>
<path d="M175.471 242.336C178.936 242.292 180.669 242.273 184.137 242.238C184.091 229.072 184.067 222.489 184.02 209.324C180.541 209.377 178.803 209.408 175.328 209.476C175.385 222.62 175.413 229.192 175.471 242.336ZM185.651 255.513C181.6 255.542 179.576 255.558 175.528 255.598C175.592 270.185 175.655 284.773 175.719 299.361H163.779C163.599 265.084 163.419 230.806 163.239 196.529C173.123 196.237 178.073 196.126 187.993 195.973C192.551 195.904 196.049 200.008 196.061 204.738C196.095 219.168 196.111 226.382 196.144 240.813C196.153 244.51 194.424 247.328 192.025 248.082C195.629 248.946 197.64 253.078 197.648 256.776C197.677 270.97 197.708 285.165 197.739 299.361H185.8L185.651 255.513Z" fill="white"/>
<path d="M219.693 195.774L219.636 286.044C223.676 286.045 225.695 286.046 229.735 286.05C229.791 255.978 229.848 225.905 229.904 195.832C234.737 195.874 237.152 195.902 241.977 195.978C241.877 227.534 241.776 259.092 241.676 290.648C241.661 295.373 238.067 299.361 233.689 299.361H215.648C211.403 299.361 207.684 295.366 207.68 290.632C207.651 259.016 207.62 227.398 207.591 195.782C212.429 195.762 214.853 195.761 219.693 195.774Z" fill="white"/>
<path d="M261.581 265.532C256.89 242.376 252.19 219.222 247.472 196.071C252.454 196.165 254.944 196.22 259.917 196.348C262.509 212.574 265.094 228.802 267.674 245.03C270.417 228.962 273.173 212.897 275.944 196.834C280.905 197.009 283.384 197.103 288.337 197.313C283.376 220.086 278.445 242.865 273.546 265.652C273.469 279.136 273.43 285.878 273.353 299.361H261.414C261.481 285.83 261.514 279.064 261.581 265.532Z" fill="white"/>
<path d="M324.025 299.36H293.25C293.476 265.426 293.701 231.491 293.928 197.556C305.901 198.1 311.876 198.423 323.796 199.17C323.76 204.322 323.741 206.898 323.705 212.05C316.552 211.659 312.97 211.48 305.8 211.154C305.722 222.316 305.684 227.899 305.606 239.062C310.652 239.219 313.172 239.303 318.21 239.482C318.174 244.651 318.156 247.236 318.12 252.406C313.081 252.266 310.56 252.2 305.517 252.076C305.421 265.786 305.374 272.639 305.278 286.347C312.814 286.398 316.582 286.426 324.114 286.487C324.078 291.636 324.061 294.211 324.025 299.36Z" fill="white"/>
<path d="M345.594 244.811C349.032 244.954 350.752 245.028 354.188 245.18C354.262 232.692 354.299 226.447 354.372 213.96C350.943 213.72 349.227 213.603 345.794 213.378C345.714 225.951 345.674 232.238 345.594 244.811ZM355.57 257.831C351.548 257.692 349.538 257.626 345.514 257.498C345.424 271.452 345.336 285.406 345.247 299.36H333.31C333.534 266.186 333.759 233.011 333.984 199.838C343.77 200.507 348.652 200.878 358.4 201.683C362.879 202.054 366.279 206.235 366.256 210.67C366.188 224.194 366.154 230.956 366.086 244.483C366.067 247.947 364.338 250.503 361.955 251.099C365.518 252.083 367.48 256.042 367.463 259.502C367.398 272.788 367.332 286.074 367.267 299.36H355.328C355.41 285.518 355.49 271.674 355.57 257.831Z" fill="white"/>
<path d="M407.986 299.36H377.214C377.344 267.367 377.472 235.374 377.601 203.38C389.418 204.491 395.313 205.095 407.072 206.404C407.072 211.184 407.07 213.575 407.07 218.355C400.001 217.671 396.462 217.344 389.374 216.722C389.346 227.18 389.332 232.41 389.304 242.868C394.308 243.167 396.809 243.323 401.806 243.643C401.802 248.454 401.8 250.858 401.796 255.668C396.788 255.418 394.284 255.296 389.272 255.062C389.237 267.904 389.22 274.326 389.185 287.168C396.706 287.266 400.468 287.316 407.986 287.423V299.36Z" fill="white"/>
</g>
<defs>
<clipPath id="clip0_34_489">
<rect width="430" height="568" fill="white"/>
</clipPath>
</defs>
</svg>
